<?xml version="1.0" encoding="utf-8"?>
<!-- Generator: Adobe Illustrator 24.0.3, SVG Export Plug-In . SVG Version: 6.00 Build 0)  -->
<svg version="1.1" id="Layer_1" xmlns="http://www.w3.org/2000/svg" xmlns:xlink="http://www.w3.org/1999/xlink" x="0px" y="0px"
	 viewBox="0 0 226.77 141.73" style="enable-background:new 0 0 226.77 141.73;" xml:space="preserve">
<style type="text/css">
	.st0{fill:#333333;}
</style>
<circle class="st0" cx="64.79" cy="84.32" r="33.31"/>
<circle class="st0" cx="116.7" cy="86.73" r="24.76"/>
<ellipse class="st0" cx="177.21" cy="92.3" rx="45.9" ry="33.31"/>
<g>
	<path class="st0" d="M83.57,111.81c-0.07,2.7-0.14,5.41-0.2,8.11c-0.01,0.37-0.03,0.76-0.25,1.06c-0.23,0.31-0.61,0.44-0.97,0.56
		c-1.59,0.51-3.17,1.02-4.76,1.52c-0.58,0.18-1.19,0.39-1.57,0.86c-0.39,0.47-0.42,1.28,0.09,1.6c0.19,0.12,0.43,0.16,0.65,0.19
		c2.4,0.34,4.79,0.68,7.19,1.02c0.46,0.07,0.95,0.13,1.39-0.05c0.71-0.29,1.04-1.1,1.27-1.83c1.73-5.51,2.18-11.43,1.3-17.14"/>
	<g>
		<path class="st0" d="M82.45,111.81c-0.05,1.9-0.1,3.81-0.14,5.71c-0.01,0.43-0.02,0.86-0.03,1.29c-0.01,0.31,0.11,1.11-0.04,1.39
			c-0.15,0.29-0.61,0.33-0.9,0.43c-0.51,0.16-1.02,0.33-1.53,0.49c-1.41,0.45-3.22,0.74-4.41,1.67c-1.04,0.82-1.41,2.46-0.37,3.45
			c0.53,0.51,1.25,0.55,1.94,0.65c0.96,0.14,1.92,0.27,2.88,0.41c0.9,0.13,1.8,0.25,2.7,0.38c0.8,0.11,1.65,0.32,2.46,0.18
			c1.54-0.28,2.16-1.69,2.57-3.04c0.52-1.69,0.91-3.42,1.18-5.17c0.63-4.07,0.62-8.15,0.01-12.22c-0.21-1.41-2.36-0.81-2.15,0.59
			c0.45,2.99,0.52,6.04,0.23,9.05c-0.15,1.55-0.4,3.08-0.74,4.59c-0.16,0.69-0.33,1.38-0.53,2.06c-0.14,0.49-0.28,1.49-0.73,1.83
			c-0.42,0.32-1.23,0.05-1.71-0.02c-0.78-0.11-1.56-0.22-2.34-0.33s-1.56-0.22-2.34-0.33c-0.36-0.05-0.72-0.1-1.08-0.15
			c-0.29-0.04-0.73-0.24-0.75,0.06c0.03-0.39,0.75-0.54,1.05-0.64c0.79-0.26,1.59-0.51,2.38-0.76c1.17-0.37,2.85-0.6,3.75-1.5
			c1.05-1.06,0.7-3.17,0.74-4.53c0.05-1.84,0.09-3.69,0.14-5.53C84.72,110.38,82.49,110.38,82.45,111.81L82.45,111.81z"/>
	</g>
</g>
<g>
	<path class="st0" d="M101.48,103.57c-0.86,5.74-1.96,11.45-3.29,17.11c-0.07,0.29-0.15,0.61-0.37,0.81c-0.26,0.25-0.65,0.28-1,0.31
		c-1.5,0.11-3,0.21-4.5,0.32c-0.33,0.02-0.68,0.04-0.96-0.12c-0.72-0.41-0.42-1.57,0.21-2.11s1.5-0.8,2-1.46
		c0.33-0.44,0.46-0.99,0.59-1.53c1.14-5.03,2.28-10.05,3.42-15.08"/>
	<g>
		<path class="st0" d="M100.41,103.27c-0.59,3.92-1.28,7.82-2.09,11.69c-0.22,1.03-0.44,2.07-0.67,3.1
			c-0.09,0.39-0.17,0.77-0.26,1.16c-0.07,0.29-0.13,1.27-0.35,1.45c-0.06,0.06-0.78,0.05-0.97,0.06c-0.44,0.03-0.87,0.06-1.31,0.09
			s-0.87,0.06-1.31,0.09c-0.24,0.02-1.28,0.24-1.45,0.1c0.21,0.18-0.02,0.09,0.21-0.18c0.17-0.2,0.41-0.32,0.63-0.45
			c0.64-0.39,1.28-0.76,1.71-1.39c0.45-0.65,0.61-1.42,0.79-2.18c0.24-1.03,0.47-2.06,0.7-3.09c0.88-3.87,1.76-7.73,2.63-11.6
			c0.32-1.4-1.83-1.99-2.15-0.59c-0.8,3.54-1.61,7.09-2.41,10.63c-0.2,0.9-0.41,1.8-0.61,2.71c-0.19,0.83-0.28,1.78-0.62,2.56
			c-0.27,0.62-0.86,0.83-1.4,1.18c-0.56,0.37-1.03,0.77-1.33,1.38c-0.5,1-0.39,2.37,0.66,2.97c0.69,0.4,1.52,0.27,2.27,0.22
			c0.87-0.06,1.75-0.12,2.62-0.19c1.46-0.1,2.95-0.1,3.49-1.72c0.54-1.64,0.8-3.44,1.16-5.13c0.86-4.07,1.59-8.16,2.21-12.28
			C102.77,102.46,100.62,101.86,100.41,103.27L100.41,103.27z"/>
	</g>
</g>
<g>
	<path class="st0" d="M113.96,109.76c0.01,3.08,0.02,6.16,0.03,9.24c0,0.32,0,0.65-0.16,0.93c-0.18,0.31-0.53,0.48-0.86,0.62
		c-1.31,0.56-2.7,0.94-4.11,1.15c-0.81,0.12-1.67,0.19-2.36,0.64c-0.69,0.45-1.11,1.43-0.65,2.11c0.46,0.67,1.44,0.66,2.24,0.57
		c3.36-0.35,6.71-0.7,10.07-1.05c0.84-4.11,0.82-8.39-0.06-12.49"/>
	<g>
		<path class="st0" d="M112.84,109.76c0.01,2.48,0.01,4.97,0.02,7.45c0,0.6,0.02,1.19,0.01,1.79c0,0.18,0.02,0.28-0.08,0.4
			c-0.15,0.17-0.59,0.26-0.79,0.34c-1.12,0.42-2.27,0.71-3.45,0.88c-1.03,0.15-2.07,0.28-2.9,0.96c-0.78,0.63-1.29,1.69-1.06,2.7
			c0.53,2.38,3.35,1.86,5.12,1.68c2.81-0.29,5.63-0.59,8.44-0.88c0.46-0.05,0.97-0.31,1.07-0.82c0.86-4.34,0.84-8.76-0.06-13.09
			c-0.29-1.4-2.44-0.81-2.15,0.59c0.82,3.92,0.84,7.97,0.06,11.9c0.36-0.27,0.72-0.55,1.07-0.82c-2.86,0.3-5.73,0.6-8.59,0.9
			c-0.3,0.03-2.69,0.5-2.81,0.04c-0.24-0.89,2.41-1.02,2.82-1.09c1.36-0.23,2.7-0.63,3.96-1.19c1.31-0.59,1.58-1.6,1.58-2.96
			c-0.01-2.93-0.02-5.86-0.02-8.79C115.07,108.33,112.84,108.32,112.84,109.76L112.84,109.76z"/>
	</g>
</g>
<g>
	<path class="st0" d="M155.39,119.64c-0.51,1.22-1.04,2.45-1.91,3.45s-2.14,1.73-3.46,1.61c-1.13-0.1-2.55-0.7-3.2,0.23
		c-0.18,0.26-0.24,0.58-0.29,0.89c-0.17,0.99-0.32,1.97-0.45,2.97c-0.03,0.25-0.06,0.53,0.1,0.72c0.15,0.19,0.42,0.23,0.66,0.25
		c2.05,0.23,4.1,0.46,6.15,0.69c0.7,0.08,1.46,0.15,2.07-0.2c0.52-0.3,0.83-0.84,1.11-1.36c1.02-1.93,1.81-3.99,2.35-6.1"/>
	<g>
		<path class="st0" d="M154.43,119.07c-0.75,1.76-1.86,4.59-4.21,4.52c-1-0.03-1.96-0.46-2.97-0.21c-1.28,0.31-1.68,1.43-1.87,2.59
			c-0.1,0.61-0.19,1.22-0.28,1.82c-0.1,0.69-0.3,1.45,0.03,2.11c0.63,1.23,2.51,1.06,3.67,1.19c1.35,0.15,2.71,0.31,4.06,0.46
			c1.21,0.13,2.39,0.1,3.33-0.78c0.94-0.88,1.46-2.31,1.95-3.47c0.59-1.37,1.07-2.78,1.44-4.23c0.36-1.39-1.79-1.98-2.15-0.59
			c-0.54,2.07-1.28,4.12-2.32,5.99c-0.16,0.29-0.33,0.64-0.63,0.8c-0.33,0.18-0.76,0.12-1.12,0.09c-1.16-0.09-2.31-0.26-3.46-0.39
			c-0.57-0.06-1.15-0.13-1.72-0.19c-0.29-0.03-0.57-0.07-0.86-0.1c-0.05-0.01-0.35-0.07-0.38-0.04c0.07,0.1,0.15,0.21,0.22,0.31
			c0-0.04,0.01-0.08,0.01-0.12c0.12-0.14,0.09-0.61,0.11-0.8c0.04-0.27,0.08-0.53,0.12-0.8c0.08-0.48,0.07-1.16,0.29-1.6
			c0.07-0.13,0-0.07,0-0.08c0.09-0.07,0.29-0.04,0.38-0.04c0.39,0,0.77,0.11,1.15,0.17c0.97,0.16,1.89,0.14,2.81-0.23
			c2.29-0.93,3.4-3.12,4.31-5.27c0.23-0.55,0.17-1.19-0.4-1.52C155.49,118.4,154.67,118.52,154.43,119.07L154.43,119.07z"/>
	</g>
</g>
<g>
	<path class="st0" d="M178.6,125.13c-0.12,1.52-0.24,3.03-0.37,4.55c-0.02,0.2-0.04,0.42-0.15,0.59c-0.18,0.27-0.55,0.35-0.87,0.4
		c-2.23,0.35-4.47,0.7-6.7,1.04c-0.99,0.15-2.05,0.35-2.72,1.09c-0.67,0.74-0.57,2.2,0.39,2.47c0.27,0.08,0.57,0.04,0.85,0.01
		c4.04-0.46,8.08-0.93,12.13-1.39c0.33-0.04,0.68-0.08,0.96-0.27c0.66-0.44,0.62-1.4,0.5-2.18c-0.36-2.53-0.73-5.07-1.09-7.6"/>
	<g>
		<path class="st0" d="M177.49,125.13c-0.07,0.85-0.14,1.71-0.21,2.56c-0.03,0.38-0.06,0.76-0.09,1.14
			c-0.01,0.18-0.06,0.39-0.05,0.57c-0.09,0.3-0.07,0.36,0.07,0.2c0.15-0.11,0.12-0.13-0.1-0.04c-0.72,0-1.52,0.24-2.24,0.35
			c-0.92,0.14-1.84,0.29-2.77,0.43c-2.3,0.36-6.26,0.71-5.83,4.01c0.17,1.32,1.22,2.13,2.54,2.06c1.71-0.1,3.42-0.39,5.12-0.59
			c1.68-0.19,3.37-0.39,5.05-0.58c1.32-0.15,3.23-0.01,4.19-1.11c1.11-1.26,0.48-3.3,0.27-4.76c-0.28-1.95-0.56-3.9-0.84-5.85
			c-0.09-0.59-0.84-0.93-1.37-0.78c-0.64,0.18-0.86,0.77-0.78,1.37c0.21,1.46,0.42,2.92,0.63,4.38c0.11,0.73,0.21,1.46,0.32,2.19
			c0.07,0.51,0.3,1.23,0.16,1.75c-0.1,0.4-0.45,0.32-0.84,0.37c-0.77,0.09-1.54,0.18-2.31,0.27c-1.44,0.17-2.89,0.33-4.33,0.5
			c-1.44,0.17-2.89,0.33-4.33,0.5c-0.31,0.04-0.62,0.09-0.94,0.11c-0.24,0.01-0.34-0.03-0.28,0.06c-0.12-0.17-0.08-0.46,0.03-0.64
			c0.48-0.8,2.17-0.81,2.97-0.94c1.5-0.23,3.01-0.47,4.51-0.7c1.35-0.21,3.01-0.26,3.26-1.93c0.24-1.61,0.28-3.28,0.41-4.9
			C179.83,123.7,177.6,123.71,177.49,125.13L177.49,125.13z"/>
	</g>
</g>
<g>
	<path class="st0" d="M128.06,108.49c1.01,2.95,2.02,5.9,3.04,8.86c0.12,0.36,0.25,0.75,0.11,1.11c-0.13,0.35-0.48,0.57-0.8,0.76
		c-0.91,0.53-1.82,1.06-2.73,1.6c-1.02,0.59-2.09,1.25-2.61,2.3c-0.53,1.05-0.2,2.61,0.92,2.97c2.59-3.16,7.03-3.87,10.85-5.33
		c0.32-0.12,0.66-0.27,0.84-0.57c0.28-0.46,0.05-1.04-0.19-1.52c-2.24-4.38-5.79-8.19-6.85-13"/>
	<g>
		<path class="st0" d="M126.99,108.78c0.77,2.25,1.54,4.49,2.31,6.74c0.2,0.58,0.4,1.15,0.59,1.73c0.17,0.5,0.33,0.66-0.05,0.99
			c-0.8,0.72-2.05,1.19-2.98,1.75c-1.35,0.81-2.77,1.86-3.08,3.49c-0.31,1.58,0.42,3.06,1.91,3.66c0.34,0.13,0.85-0.02,1.08-0.29
			c1.62-1.9,3.87-2.85,6.18-3.63c1.2-0.41,2.42-0.77,3.61-1.2c1.07-0.39,2.21-0.84,2.33-2.14c0.12-1.25-0.83-2.53-1.43-3.56
			c-0.69-1.16-1.44-2.29-2.17-3.43c-1.51-2.36-2.95-4.77-3.59-7.53c-0.33-1.4-2.47-0.81-2.15,0.59c0.58,2.49,1.76,4.76,3.09,6.92
			c0.65,1.06,1.34,2.09,2,3.14c0.36,0.57,0.72,1.15,1.06,1.73c0.28,0.48,0.77,1.1,0.88,1.64c0.07,0.33,0.22,0.06-0.06,0.27
			c-0.17,0.14-0.64,0.24-0.85,0.31c-0.53,0.18-1.05,0.36-1.58,0.53c-1.11,0.36-2.22,0.71-3.31,1.13c-2.11,0.82-4.11,1.9-5.6,3.64
			c0.36-0.1,0.72-0.19,1.08-0.29c-0.45-0.18-0.39-0.98-0.25-1.33c0.28-0.72,1.08-1.21,1.7-1.6c0.73-0.45,1.48-0.87,2.22-1.3
			c0.71-0.42,1.62-0.8,2.09-1.52c0.92-1.39-0.32-3.54-0.79-4.9c-0.7-2.05-1.41-4.11-2.11-6.16
			C128.67,106.84,126.52,107.42,126.99,108.78L126.99,108.78z"/>
	</g>
</g>
<g>
	<path class="st0" d="M46.1,61.31c-6.76-9.16-4.04-23.72-12.64-31.2c-2.5-2.17-5.68-3.42-8.87-4.32c-3.71-1.05-7.76-1.67-11.38-0.31
		s-6.49,5.28-5.5,9.01c-1.62,1.42-4.45,0.09-5.06-1.97s0.4-4.29,1.81-5.92c2.68-3.1,6.76-4.75,10.85-5.14
		c4.08-0.38,8.19,0.41,12.13,1.55c2.96,0.86,5.93,1.96,8.3,3.92c4.49,3.71,6.09,9.78,7.46,15.44c1.3,5.39,2.59,10.78,3.89,16.17"/>
	<g>
		<path class="st0" d="M47.06,60.75c-5.15-7.11-4.65-16.46-7.94-24.34c-1.71-4.12-4.52-7.48-8.53-9.53
			c-4.56-2.32-10.43-3.95-15.54-3.05c-5.06,0.89-9.66,5.55-8.41,10.96c0.1-0.36,0.19-0.72,0.29-1.08c-0.65,0.5-1.59,0.22-2.21-0.2
			c-0.94-0.65-1.24-1.68-1.09-2.79c0.31-2.37,2.31-4.34,4.22-5.59c4.33-2.84,9.73-3.06,14.69-2.14c4.76,0.88,10.21,2.29,13.66,5.91
			c3.08,3.23,4.41,7.72,5.48,11.94c1.52,5.99,2.9,12.02,4.35,18.03c0.34,1.39,2.48,0.8,2.15-0.59c-1.55-6.44-2.96-12.94-4.69-19.33
			c-1.37-5.08-3.43-10.26-7.83-13.46c-2.35-1.71-5.14-2.72-7.91-3.52c-3.12-0.91-6.34-1.59-9.6-1.68c-5.47-0.15-11.43,1.6-14.9,6.09
			c-1.71,2.21-2.79,5.58-0.85,8c1.52,1.89,4.15,2.44,6.1,0.93c0.31-0.24,0.37-0.73,0.29-1.08c-1.14-4.91,4.08-8.17,8.31-8.37
			c2.51-0.12,5,0.41,7.4,1.1c2.3,0.66,4.56,1.5,6.58,2.8c6.82,4.37,7.68,13.17,9.34,20.38c0.95,4.14,2.2,8.3,4.72,11.77
			C45.97,63.02,47.9,61.91,47.06,60.75L47.06,60.75z"/>
	</g>
</g>
<g>
	<path class="st0" d="M69.72,51.42c-2-5.48-4.01-10.95-6.01-16.43c-2.43-6.63-4.89-13.34-8.85-19.19S45.25,4.94,38.4,3.22
		c-4.21-1.06-9.04-0.7-12.38,2.07s-4.41,8.36-1.47,11.55c2.68-1.52,0.22-6.17,2.16-8.57c0.51-0.64,1.28-1.01,2.04-1.3
		c5.37-2.02,11.6-0.4,16.23,2.99s7.89,8.31,10.6,13.36c5.01,9.35,8.49,19.53,10.23,30"/>
	<g>
		<path class="st0" d="M70.8,51.12c-2.47-6.75-4.89-13.52-7.42-20.24c-2.26-6.01-4.79-12.05-8.67-17.22
			C51.38,9.23,47.13,5.4,41.96,3.25C37.05,1.2,30.83,0.61,26.22,3.76c-4.42,3.02-6.17,9.62-2.45,13.88
			c0.31,0.36,0.96,0.43,1.35,0.17c1.54-0.98,1.9-2.59,1.92-4.32c0.01-1.78-0.49-4.09,1.35-5.12c4.35-2.44,10.36-0.92,14.37,1.46
			c4.37,2.59,7.58,6.73,10.15,11.03c2.81,4.68,5.13,9.68,7.03,14.79c2.17,5.83,3.77,11.86,4.81,17.99c0.24,1.41,2.39,0.81,2.15-0.59
			c-1.95-11.52-5.9-22.87-11.85-32.95c-2.65-4.48-5.92-8.75-10.31-11.65c-4.26-2.81-9.71-4.24-14.75-3
			c-2.46,0.61-4.66,1.78-5.09,4.47c-0.18,1.09-0.09,2.19-0.09,3.29c0.01,0.93,0.08,2.13-0.81,2.7c0.45,0.06,0.9,0.12,1.35,0.17
			c-3.1-3.55-0.73-8.98,2.97-10.96c4.5-2.42,10.2-1.25,14.52,1c9.84,5.13,14.76,15.69,18.48,25.59c2.5,6.66,4.9,13.35,7.34,20.03
			C69.14,53.05,71.29,52.47,70.8,51.12L70.8,51.12z"/>
	</g>
</g>
</svg>
