<?xml version="1.0" encoding="utf-8"?>
<!-- Generator: Adobe Illustrator 24.0.3, SVG Export Plug-In . SVG Version: 6.00 Build 0)  -->
<svg version="1.1" id="Layer_1" xmlns="http://www.w3.org/2000/svg" xmlns:xlink="http://www.w3.org/1999/xlink" x="0px" y="0px"
	 viewBox="0 0 425.2 425.2" style="enable-background:new 0 0 425.2 425.2;" xml:space="preserve">
<style type="text/css">
	.st0{fill:#333333;}
</style>
<circle class="st0" cx="95.15" cy="217.8" r="44.85"/>
<circle class="st0" cx="165.04" cy="221.05" r="33.34"/>
<ellipse class="st0" cx="246.51" cy="228.55" rx="61.8" ry="44.85"/>
<g>
	<path class="st0" d="M120.42,254.82c-0.09,3.64-0.18,7.28-0.28,10.92c-0.01,0.5-0.04,1.03-0.33,1.43c-0.3,0.41-0.82,0.59-1.31,0.75
		c-2.14,0.68-4.27,1.37-6.41,2.05c-0.78,0.25-1.6,0.53-2.12,1.15c-0.52,0.63-0.57,1.72,0.12,2.16c0.26,0.16,0.57,0.21,0.88,0.25
		c3.23,0.46,6.46,0.91,9.68,1.37c0.62,0.09,1.28,0.17,1.87-0.06c0.96-0.38,1.4-1.47,1.71-2.46c2.33-7.42,2.94-15.38,1.75-23.07"/>
	<g>
		<path class="st0" d="M118.92,254.82c-0.06,2.56-0.13,5.13-0.19,7.69c-0.01,0.58-0.03,1.16-0.04,1.74
			c-0.01,0.42,0.16,1.52-0.05,1.87c-0.42,0.69-2.5,0.98-3.27,1.23c-1.93,0.62-4.49,1-6.07,2.36c-1.34,1.15-1.73,3.41-0.26,4.63
			c0.77,0.64,1.79,0.68,2.75,0.81c1.29,0.18,2.58,0.36,3.87,0.55c1.21,0.17,2.42,0.34,3.63,0.51c1.07,0.15,2.2,0.42,3.27,0.18
			c2.04-0.46,2.79-2.5,3.33-4.28c0.69-2.31,1.22-4.67,1.57-7.06c0.81-5.38,0.78-10.77-0.03-16.15c-0.28-1.9-3.18-1.09-2.89,0.8
			c0.6,4.02,0.69,8.12,0.31,12.17c-0.19,2.04-0.52,4.06-0.97,6.05c-0.2,0.91-0.44,1.82-0.69,2.71c-0.21,0.76-0.38,1.99-0.96,2.59
			c-0.51,0.52-1.51,0.18-2.15,0.09c-1.05-0.15-2.1-0.3-3.15-0.44s-2.1-0.3-3.15-0.44c-0.48-0.07-0.97-0.14-1.45-0.21
			c-0.18-0.02-1.35-0.21-1.26-0.07c0.13,0.2-0.08,0.07,0.02-0.02c0.17-0.16,0.22-0.22,0.44-0.35c0.29-0.17,0.64-0.26,0.95-0.36
			c0.99-0.33,1.98-0.63,2.98-0.95c1.64-0.52,4.02-0.83,5.28-2.1c1.42-1.43,0.94-4.26,0.99-6.1c0.06-2.48,0.13-4.96,0.19-7.44
			C121.97,252.89,118.97,252.89,118.92,254.82L118.92,254.82z"/>
	</g>
</g>
<g>
	<path class="st0" d="M144.55,243.72c-1.16,7.74-2.64,15.42-4.43,23.04c-0.09,0.4-0.2,0.82-0.5,1.1c-0.35,0.33-0.87,0.38-1.35,0.42
		c-2.02,0.14-4.04,0.29-6.05,0.43c-0.44,0.03-0.91,0.06-1.29-0.16c-0.97-0.56-0.57-2.12,0.29-2.84s2.02-1.08,2.7-1.96
		c0.45-0.59,0.63-1.34,0.79-2.06c1.54-6.77,3.07-13.54,4.61-20.31"/>
	<g>
		<path class="st0" d="M143.1,243.32c-0.62,4.11-1.32,8.2-2.12,12.28c-0.39,2-0.8,3.99-1.23,5.98c-0.21,0.96-0.42,1.91-0.64,2.86
			c-0.14,0.59-0.22,2.01-0.68,2.29c-0.27,0.17-1,0.08-1.33,0.1c-0.47,0.03-0.93,0.07-1.4,0.1c-1.01,0.07-2.02,0.15-3.03,0.22
			c-0.21,0.01-0.62-0.02-0.8,0.05c-0.33,0.14-0.12-0.18-0.14,0.11c-0.03,0.37,0.27-0.28,0.28-0.29c0.54-0.53,1.22-0.83,1.84-1.27
			c1.42-0.99,1.97-2.31,2.34-3.94c0.46-2.01,0.91-4.03,1.37-6.04c1.06-4.67,2.12-9.35,3.18-14.02c0.43-1.88-2.46-2.68-2.89-0.8
			c-1.1,4.83-2.2,9.67-3.29,14.5c-0.26,1.13-0.51,2.26-0.77,3.38c-0.26,1.12-0.37,2.44-0.84,3.5c-0.37,0.85-1.17,1.14-1.9,1.61
			c-0.76,0.5-1.42,1.07-1.82,1.91c-0.72,1.51-0.39,3.44,1.28,4.11c0.84,0.34,1.74,0.21,2.62,0.15c1.24-0.09,2.48-0.18,3.73-0.27
			c2.01-0.14,3.92-0.19,4.61-2.41c0.71-2.25,1.08-4.67,1.56-6.98c1.14-5.42,2.12-10.88,2.94-16.36
			C146.28,242.23,143.39,241.42,143.1,243.32L143.1,243.32z"/>
	</g>
</g>
<g>
	<path class="st0" d="M161.34,252.06c0.01,4.14,0.02,8.29,0.03,12.43c0,0.43,0,0.88-0.22,1.25c-0.25,0.42-0.71,0.65-1.16,0.83
		c-1.77,0.75-3.64,1.27-5.54,1.55c-1.1,0.16-2.25,0.25-3.18,0.86s-1.5,1.93-0.87,2.85c0.62,0.9,1.93,0.89,3.02,0.77
		c4.52-0.47,9.04-0.95,13.56-1.42c1.13-5.53,1.1-11.3-0.08-16.82"/>
	<g>
		<path class="st0" d="M159.84,252.06c0.01,3.34,0.02,6.69,0.03,10.03c0,0.8,0.02,1.61,0.01,2.41c0,0.24,0.02,0.38-0.11,0.53
			c-0.2,0.23-0.79,0.36-1.07,0.46c-1.5,0.56-3.06,0.96-4.65,1.19c-1.38,0.21-2.78,0.38-3.91,1.29c-1.05,0.85-1.73,2.28-1.43,3.64
			c0.72,3.2,4.52,2.51,6.9,2.26c3.79-0.4,7.58-0.79,11.36-1.19c0.62-0.07,1.31-0.42,1.45-1.1c1.16-5.84,1.13-11.79-0.08-17.62
			c-0.39-1.89-3.29-1.09-2.89,0.8c1.1,5.28,1.13,10.74,0.08,16.02c0.48-0.37,0.96-0.73,1.45-1.1c-3.85,0.4-7.71,0.81-11.56,1.21
			c-0.4,0.04-3.62,0.67-3.79,0.06c-0.33-1.2,3.24-1.38,3.79-1.47c1.82-0.31,3.64-0.84,5.33-1.61c1.76-0.8,2.13-2.15,2.12-3.98
			c-0.01-3.94-0.02-7.89-0.03-11.83C162.84,250.13,159.84,250.12,159.84,252.06L159.84,252.06z"/>
	</g>
</g>
<g>
	<path class="st0" d="M217.13,265.35c-0.69,1.64-1.4,3.3-2.57,4.65c-1.17,1.34-2.88,2.33-4.66,2.17c-1.52-0.14-3.43-0.94-4.31,0.3
		c-0.25,0.35-0.33,0.78-0.4,1.2c-0.23,1.33-0.43,2.66-0.61,3.99c-0.05,0.34-0.08,0.71,0.13,0.98c0.2,0.25,0.56,0.31,0.88,0.34
		c2.76,0.31,5.52,0.62,8.28,0.93c0.94,0.11,1.96,0.2,2.79-0.27c0.69-0.4,1.12-1.13,1.5-1.83c1.37-2.6,2.44-5.37,3.16-8.22"/>
	<g>
		<path class="st0" d="M215.84,264.6c-1,2.37-2.51,6.19-5.67,6.09c-1.35-0.04-2.64-0.62-4-0.29c-1.72,0.42-2.26,1.92-2.52,3.49
			c-0.14,0.82-0.26,1.64-0.38,2.46c-0.13,0.93-0.41,1.96,0.04,2.84c0.84,1.65,3.38,1.42,4.94,1.6c1.82,0.21,3.64,0.41,5.46,0.62
			c1.63,0.18,3.22,0.13,4.49-1.05c1.26-1.18,1.96-3.11,2.63-4.67c0.79-1.85,1.44-3.74,1.95-5.69c0.48-1.87-2.41-2.67-2.89-0.8
			c-0.72,2.79-1.72,5.54-3.13,8.07c-0.21,0.38-0.44,0.86-0.84,1.08c-0.44,0.24-1.03,0.16-1.51,0.12c-1.56-0.13-3.11-0.35-4.66-0.52
			c-0.77-0.09-1.55-0.17-2.32-0.26c-0.39-0.04-0.77-0.09-1.16-0.13c-0.06-0.01-0.47-0.09-0.51-0.05c0.1,0.14,0.2,0.28,0.3,0.42
			c0.01-0.06,0.01-0.11,0.02-0.17c0.16-0.18,0.12-0.82,0.15-1.08c0.05-0.36,0.11-0.72,0.16-1.08c0.1-0.65,0.1-1.56,0.39-2.16
			c0.09-0.18-0.01-0.1,0-0.1c0.11-0.09,0.4-0.05,0.51-0.05c0.52,0.01,1.03,0.15,1.55,0.23c1.31,0.22,2.54,0.19,3.78-0.32
			c3.08-1.25,4.58-4.2,5.81-7.09c0.32-0.75,0.22-1.61-0.54-2.05C217.26,263.69,216.16,263.85,215.84,264.6L215.84,264.6z"/>
	</g>
</g>
<g>
	<path class="st0" d="M248.38,272.75c-0.16,2.04-0.33,4.08-0.49,6.12c-0.02,0.28-0.05,0.56-0.2,0.79c-0.25,0.37-0.74,0.47-1.17,0.53
		c-3.01,0.47-6.01,0.94-9.02,1.4c-1.33,0.21-2.76,0.47-3.67,1.46c-0.9,0.99-0.76,2.96,0.53,3.32c0.37,0.1,0.76,0.06,1.14,0.02
		c5.44-0.63,10.89-1.25,16.33-1.88c0.45-0.05,0.92-0.11,1.3-0.36c0.88-0.59,0.83-1.89,0.68-2.94c-0.49-3.41-0.98-6.82-1.47-10.23"/>
	<g>
		<path class="st0" d="M246.88,272.75c-0.09,1.15-0.19,2.3-0.28,3.44c-0.04,0.51-0.08,1.02-0.12,1.53
			c-0.02,0.24-0.08,0.53-0.06,0.77c-0.12,0.4-0.09,0.49,0.1,0.27c0.21-0.15,0.16-0.17-0.14-0.05c-0.97-0.01-2.05,0.32-3.01,0.47
			c-1.24,0.19-2.48,0.39-3.73,0.58c-3.1,0.48-8.43,0.96-7.85,5.4c0.23,1.78,1.64,2.87,3.42,2.77c2.3-0.13,4.61-0.53,6.9-0.79
			c2.27-0.26,4.54-0.52,6.8-0.78c1.78-0.2,4.35-0.02,5.64-1.49c1.49-1.7,0.64-4.44,0.36-6.41c-0.38-2.62-0.75-5.25-1.13-7.87
			c-0.12-0.8-1.14-1.25-1.85-1.05c-0.86,0.24-1.16,1.04-1.05,1.85c0.28,1.97,0.57,3.94,0.85,5.9c0.14,0.98,0.28,1.97,0.42,2.95
			c0.1,0.68,0.4,1.66,0.22,2.35c-0.14,0.54-0.61,0.44-1.14,0.5c-1.04,0.12-2.07,0.24-3.11,0.36c-1.94,0.22-3.89,0.45-5.83,0.67
			c-1.94,0.22-3.89,0.45-5.83,0.67c-0.42,0.05-0.84,0.12-1.26,0.14c-0.32,0.02-0.45-0.04-0.37,0.08c-0.16-0.23-0.11-0.62,0.03-0.86
			c0.65-1.07,2.93-1.09,4-1.26c2.03-0.32,4.05-0.63,6.08-0.95c1.82-0.28,4.05-0.35,4.38-2.6c0.32-2.17,0.37-4.41,0.55-6.6
			C250.04,270.83,247.04,270.84,246.88,272.75L246.88,272.75z"/>
	</g>
</g>
<g>
	<path class="st0" d="M180.33,250.34c1.36,3.97,2.73,7.95,4.09,11.92c0.17,0.48,0.33,1.01,0.15,1.49c-0.18,0.47-0.65,0.77-1.08,1.02
		c-1.22,0.72-2.45,1.43-3.67,2.15c-1.37,0.8-2.81,1.68-3.52,3.1c-0.71,1.42-0.27,3.52,1.24,3.99c3.49-4.25,9.47-5.21,14.6-7.18
		c0.43-0.17,0.89-0.37,1.14-0.76c0.37-0.61,0.07-1.4-0.26-2.04c-3.01-5.9-7.79-11.03-9.22-17.5"/>
	<g>
		<path class="st0" d="M178.89,250.74c1,2.9,1.99,5.81,2.99,8.71c0.29,0.84,1.55,3.26,1.02,3.93c-0.35,0.45-1.29,0.76-1.8,1.06
			c-0.68,0.4-1.36,0.79-2.04,1.19c-1.85,1.09-3.93,2.46-4.45,4.7c-0.5,2.17,0.44,4.3,2.53,5.13c0.45,0.18,1.15-0.02,1.46-0.39
			c2.22-2.62,5.35-3.9,8.53-4.96c1.57-0.53,3.15-1,4.71-1.57c1.61-0.58,3.17-1.33,3.1-3.31c-0.07-1.68-1.37-3.41-2.21-4.8
			c-0.92-1.52-1.9-2.99-2.85-4.49c-1.96-3.08-3.79-6.23-4.62-9.81c-0.44-1.88-3.33-1.08-2.89,0.8c0.76,3.28,2.3,6.29,4.06,9.15
			c1.76,2.86,3.95,5.63,5.31,8.71c0.15,0.34,0.11,0.65,0.3,0.46c-0.19,0.19-0.74,0.32-0.99,0.41c-0.72,0.26-1.44,0.5-2.16,0.74
			c-1.57,0.51-3.16,1-4.7,1.6c-2.9,1.11-5.66,2.57-7.7,4.97c0.49-0.13,0.97-0.26,1.46-0.39c-0.57-0.22-0.53-1.23-0.37-1.69
			c0.31-0.93,1.28-1.59,2.06-2.09c1.04-0.66,2.13-1.26,3.19-1.89c0.98-0.57,2.22-1.1,2.87-2.07c0.61-0.92,0.49-1.97,0.18-2.97
			c-0.41-1.31-0.89-2.6-1.34-3.9c-0.92-2.68-1.83-5.35-2.75-8.03C181.16,248.13,178.26,248.91,178.89,250.74L178.89,250.74z"/>
	</g>
</g>
<g>
	<path class="st0" d="M69.98,186.83c-9.11-12.34-5.44-31.94-17.02-42.01c-3.37-2.93-7.64-4.6-11.94-5.82
		c-5-1.41-10.45-2.25-15.32-0.42c-4.86,1.83-8.74,7.11-7.41,12.14c-2.18,1.91-5.99,0.13-6.81-2.65c-0.82-2.78,0.54-5.78,2.44-7.97
		c3.61-4.17,9.11-6.4,14.6-6.91c5.5-0.51,11.03,0.55,16.33,2.09c3.99,1.16,7.98,2.63,11.18,5.28c6.04,5,8.21,13.17,10.04,20.79
		c1.75,7.26,3.49,14.52,5.24,21.77"/>
	<g>
		<path class="st0" d="M71.27,186.07c-6.86-9.44-6.24-21.84-10.51-32.35c-2.27-5.6-5.94-10.25-11.35-13.1
			c-3.12-1.64-6.52-2.75-9.94-3.58c-3.66-0.88-7.45-1.34-11.18-0.71c-6.81,1.15-13.2,7.46-11.44,14.78
			c0.13-0.49,0.26-0.97,0.39-1.46c-0.8,0.64-1.97,0.34-2.77-0.14c-1.1-0.66-1.67-1.7-1.73-2.98c-0.14-3.16,2.47-6.02,4.82-7.79
			c5.4-4.07,12.54-4.77,19.04-3.8c3.64,0.54,7.26,1.48,10.73,2.68c3.08,1.06,6.1,2.5,8.51,4.75c4.56,4.27,6.53,10.47,8.04,16.35
			c2.12,8.23,4,16.53,5.98,24.79c0.45,1.88,3.34,1.08,2.89-0.8c-2.05-8.51-3.94-17.08-6.18-25.55c-1.81-6.84-4.46-13.89-10.29-18.31
			c-3.13-2.38-6.88-3.8-10.62-4.91c-4.12-1.22-8.36-2.15-12.66-2.35c-7.33-0.35-15.39,1.78-20.27,7.6
			c-2.4,2.85-4.29,7.37-1.96,10.84c1.91,2.85,5.8,3.97,8.59,1.75c0.41-0.33,0.5-0.98,0.39-1.46c-1.46-6.05,4.71-10.59,10.03-11.18
			c3.51-0.39,7.04,0.27,10.42,1.19c3.11,0.85,6.19,1.92,8.97,3.59c9.52,5.73,10.83,17.5,13.06,27.37c1.29,5.71,2.97,11.5,6.46,16.29
			C69.81,189.13,72.41,187.63,71.27,186.07L71.27,186.07z"/>
	</g>
</g>
<g>
	<path class="st0" d="M101.78,173.5c-2.7-7.37-5.4-14.75-8.09-22.12c-3.27-8.93-6.59-17.96-11.91-25.84
		c-5.32-7.88-12.94-14.62-22.17-16.94c-5.67-1.43-12.17-0.95-16.67,2.79s-5.94,11.25-1.98,15.56c3.6-2.05,0.3-8.31,2.91-11.54
		c0.69-0.86,1.72-1.36,2.75-1.75c7.23-2.71,15.62-0.53,21.85,4.02c6.23,4.55,10.62,11.19,14.27,17.99
		c6.75,12.59,11.42,26.3,13.78,40.39"/>
	<g>
		<path class="st0" d="M103.23,173.11c-3.22-8.79-6.39-17.6-9.66-26.37c-2.99-8.01-6.28-16.07-11.28-23.07
			c-4.33-6.06-9.95-11.45-16.8-14.55c-6.7-3.04-15.18-4.2-21.74-0.14c-6.28,3.89-9.07,13.14-3.85,19.04
			c0.43,0.48,1.28,0.57,1.82,0.23c2.26-1.4,2.61-3.86,2.58-6.32c-0.03-2.43-0.51-5.26,2.07-6.53c5.83-2.87,13.28-1.22,18.66,1.84
			c6.02,3.42,10.44,9.03,13.97,14.86c3.77,6.24,6.89,12.92,9.46,19.74c3,7.97,5.21,16.22,6.62,24.62c0.32,1.9,3.21,1.09,2.89-0.8
			c-2.61-15.45-7.9-30.66-15.85-44.19c-3.62-6.17-8.13-12.07-14.2-16c-5.75-3.72-13.06-5.58-19.8-3.86
			c-1.74,0.44-3.6,1.08-4.93,2.33c-1.13,1.07-1.64,2.53-1.83,4.04c-0.19,1.51-0.05,3.01-0.06,4.53c-0.01,1.13-0.03,2.47-1.09,3.13
			c0.61,0.08,1.21,0.16,1.82,0.23c-4.1-4.64-1.08-11.9,3.74-14.62c5.97-3.36,13.61-1.93,19.44,1.01
			c13.54,6.84,20.25,21.31,25.31,34.82c3.34,8.91,6.55,17.86,9.82,26.8C101,175.7,103.9,174.92,103.23,173.11L103.23,173.11z"/>
	</g>
</g>
</svg>
