<?xml version="1.0" encoding="utf-8"?>
<!-- Generator: Adobe Illustrator 24.0.3, SVG Export Plug-In . SVG Version: 6.00 Build 0)  -->
<svg version="1.1" id="Layer_1" xmlns="http://www.w3.org/2000/svg" xmlns:xlink="http://www.w3.org/1999/xlink" x="0px" y="0px"
	 viewBox="0 0 226.8 141.7" style="enable-background:new 0 0 226.8 141.7;" xml:space="preserve">
<style type="text/css">
	.st0{fill:#333333;}
</style>
<circle class="st0" cx="64.8" cy="84.3" r="33.3"/>
<circle class="st0" cx="116.7" cy="86.7" r="24.8"/>
<ellipse class="st0" cx="177.2" cy="92.3" rx="45.9" ry="33.3"/>
<g>
	<path class="st0" d="M83.6,111.8c-0.1,2.7-0.1,5.4-0.2,8.1c0,0.4,0,0.8-0.2,1.1c-0.2,0.3-0.6,0.4-1,0.6c-1.6,0.5-3.2,1-4.8,1.5
		c-0.6,0.2-1.2,0.4-1.6,0.9c-0.4,0.5-0.4,1.3,0.1,1.6c0.2,0.1,0.4,0.2,0.7,0.2c2.4,0.3,4.8,0.7,7.2,1c0.5,0.1,0.9,0.1,1.4-0.1
		c0.7-0.3,1-1.1,1.3-1.8c1.7-5.5,2.2-11.4,1.3-17.1"/>
	<g>
		<path class="st0" d="M82.4,111.8c-0.1,1.9-0.1,3.8-0.1,5.7c0,0.4,0,0.9,0,1.3c0,0.3,0.1,1.1,0,1.4c-0.2,0.3-0.6,0.3-0.9,0.4
			c-0.5,0.2-1,0.3-1.5,0.5c-1.4,0.4-3.2,0.7-4.4,1.7c-1,0.8-1.4,2.5-0.4,3.4c0.5,0.5,1.2,0.6,1.9,0.7c1,0.1,1.9,0.3,2.9,0.4
			c0.9,0.1,1.8,0.2,2.7,0.4c0.8,0.1,1.7,0.3,2.5,0.2c1.5-0.3,2.2-1.7,2.6-3c0.5-1.7,0.9-3.4,1.2-5.2c0.6-4.1,0.6-8.2,0-12.2
			c-0.2-1.4-2.4-0.8-2.2,0.6c0.4,3,0.5,6,0.2,9.1c-0.2,1.6-0.4,3.1-0.7,4.6c-0.2,0.7-0.3,1.4-0.5,2.1c-0.1,0.5-0.3,1.5-0.7,1.8
			c-0.4,0.3-1.2,0.1-1.7,0c-0.8-0.1-1.6-0.2-2.3-0.3s-1.6-0.2-2.3-0.3c-0.4-0.1-0.7-0.1-1.1-0.2c-0.3,0-0.7-0.2-0.8,0.1
			c0-0.4,0.8-0.5,1.1-0.6c0.8-0.3,1.6-0.5,2.4-0.8c1.2-0.4,2.8-0.6,3.8-1.5c1.1-1.1,0.7-3.2,0.7-4.5c0.1-1.8,0.1-3.7,0.1-5.5
			C84.7,110.4,82.5,110.4,82.4,111.8L82.4,111.8z"/>
	</g>
</g>
<g>
	<path class="st0" d="M101.5,103.6c-0.9,5.7-2,11.4-3.3,17.1c-0.1,0.3-0.2,0.6-0.4,0.8c-0.3,0.2-0.7,0.3-1,0.3
		c-1.5,0.1-3,0.2-4.5,0.3c-0.3,0-0.7,0-1-0.1c-0.7-0.4-0.4-1.6,0.2-2.1s1.5-0.8,2-1.5c0.3-0.4,0.5-1,0.6-1.5
		c1.1-5,2.3-10.1,3.4-15.1"/>
	<g>
		<path class="st0" d="M100.4,103.3c-0.6,3.9-1.3,7.8-2.1,11.7c-0.2,1-0.4,2.1-0.7,3.1c-0.1,0.4-0.2,0.8-0.3,1.2
			c-0.1,0.3-0.1,1.3-0.3,1.4c-0.1,0.1-0.8,0.1-1,0.1c-0.4,0-0.9,0.1-1.3,0.1s-0.9,0.1-1.3,0.1c-0.2,0-1.3,0.2-1.4,0.1
			c0.2,0.2,0,0.1,0.2-0.2c0.2-0.2,0.4-0.3,0.6-0.4c0.6-0.4,1.3-0.8,1.7-1.4c0.4-0.7,0.6-1.4,0.8-2.2c0.2-1,0.5-2.1,0.7-3.1
			c0.9-3.9,1.8-7.7,2.6-11.6c0.3-1.4-1.8-2-2.2-0.6c-0.8,3.5-1.6,7.1-2.4,10.6c-0.2,0.9-0.4,1.8-0.6,2.7c-0.2,0.8-0.3,1.8-0.6,2.6
			c-0.3,0.6-0.9,0.8-1.4,1.2c-0.6,0.4-1,0.8-1.3,1.4c-0.5,1-0.4,2.4,0.7,3c0.7,0.4,1.5,0.3,2.3,0.2c0.9-0.1,1.8-0.1,2.6-0.2
			c1.5-0.1,2.9-0.1,3.5-1.7c0.5-1.6,0.8-3.4,1.2-5.1c0.9-4.1,1.6-8.2,2.2-12.3C102.8,102.5,100.6,101.9,100.4,103.3L100.4,103.3z"/>
	</g>
</g>
<g>
	<path class="st0" d="M114,109.8c0,3.1,0,6.2,0,9.2c0,0.3,0,0.7-0.2,0.9c-0.2,0.3-0.5,0.5-0.9,0.6c-1.3,0.6-2.7,0.9-4.1,1.2
		c-0.8,0.1-1.7,0.2-2.4,0.6s-1.1,1.4-0.7,2.1c0.5,0.7,1.4,0.7,2.2,0.6c3.4-0.3,6.7-0.7,10.1-1.1c0.8-4.1,0.8-8.4-0.1-12.5"/>
	<g>
		<path class="st0" d="M112.8,109.8c0,2.5,0,5,0,7.4c0,0.6,0,1.2,0,1.8c0,0.2,0,0.3-0.1,0.4c-0.2,0.2-0.6,0.3-0.8,0.3
			c-1.1,0.4-2.3,0.7-3.4,0.9c-1,0.2-2.1,0.3-2.9,1c-0.8,0.6-1.3,1.7-1.1,2.7c0.5,2.4,3.3,1.9,5.1,1.7c2.8-0.3,5.6-0.6,8.4-0.9
			c0.5-0.1,1-0.3,1.1-0.8c0.9-4.3,0.8-8.8-0.1-13.1c-0.3-1.4-2.4-0.8-2.2,0.6c0.8,3.9,0.8,8,0.1,11.9c0.4-0.3,0.7-0.6,1.1-0.8
			c-2.9,0.3-5.7,0.6-8.6,0.9c-0.3,0-2.7,0.5-2.8,0c-0.2-0.9,2.4-1,2.8-1.1c1.4-0.2,2.7-0.6,4-1.2c1.3-0.6,1.6-1.6,1.6-3
			c0-2.9,0-5.9,0-8.8C115.1,108.3,112.8,108.3,112.8,109.8L112.8,109.8z"/>
	</g>
</g>
<g>
	<path class="st0" d="M155.4,119.6c-0.5,1.2-1,2.4-1.9,3.4s-2.1,1.7-3.5,1.6c-1.1-0.1-2.6-0.7-3.2,0.2c-0.2,0.3-0.2,0.6-0.3,0.9
		c-0.2,1-0.3,2-0.4,3c0,0.2-0.1,0.5,0.1,0.7c0.1,0.2,0.4,0.2,0.7,0.2c2.1,0.2,4.1,0.5,6.1,0.7c0.7,0.1,1.5,0.1,2.1-0.2
		c0.5-0.3,0.8-0.8,1.1-1.4c1-1.9,1.8-4,2.4-6.1"/>
	<g>
		<path class="st0" d="M154.4,119.1c-0.8,1.8-1.9,4.6-4.2,4.5c-1,0-2-0.5-3-0.2c-1.3,0.3-1.7,1.4-1.9,2.6c-0.1,0.6-0.2,1.2-0.3,1.8
			c-0.1,0.7-0.3,1.4,0,2.1c0.6,1.2,2.5,1.1,3.7,1.2c1.4,0.1,2.7,0.3,4.1,0.5c1.2,0.1,2.4,0.1,3.3-0.8s1.5-2.3,1.9-3.5
			c0.6-1.4,1.1-2.8,1.4-4.2c0.4-1.4-1.8-2-2.1-0.6c-0.5,2.1-1.3,4.1-2.3,6c-0.2,0.3-0.3,0.6-0.6,0.8c-0.3,0.2-0.8,0.1-1.1,0.1
			c-1.2-0.1-2.3-0.3-3.5-0.4c-0.6-0.1-1.1-0.1-1.7-0.2c-0.3,0-0.6-0.1-0.9-0.1c-0.1,0-0.4-0.1-0.4,0c0.1,0.1,0.1,0.2,0.2,0.3
			c0,0,0-0.1,0-0.1c0.1-0.1,0.1-0.6,0.1-0.8c0-0.3,0.1-0.5,0.1-0.8c0.1-0.5,0.1-1.2,0.3-1.6c0.1-0.1,0-0.1,0-0.1
			c0.1-0.1,0.3,0,0.4,0c0.4,0,0.8,0.1,1.1,0.2c1,0.2,1.9,0.1,2.8-0.2c2.3-0.9,3.4-3.1,4.3-5.3c0.2-0.6,0.2-1.2-0.4-1.5
			C155.5,118.4,154.7,118.5,154.4,119.1L154.4,119.1z"/>
	</g>
</g>
<g>
	<path class="st0" d="M178.6,125.1c-0.1,1.5-0.2,3-0.4,4.5c0,0.2,0,0.4-0.1,0.6c-0.2,0.3-0.6,0.4-0.9,0.4c-2.2,0.4-4.5,0.7-6.7,1
		c-1,0.1-2.1,0.4-2.7,1.1c-0.7,0.7-0.6,2.2,0.4,2.5c0.3,0.1,0.6,0,0.9,0c4-0.5,8.1-0.9,12.1-1.4c0.3,0,0.7-0.1,1-0.3
		c0.7-0.4,0.6-1.4,0.5-2.2c-0.4-2.5-0.7-5.1-1.1-7.6"/>
	<g>
		<path class="st0" d="M177.5,125.1c-0.1,0.8-0.1,1.7-0.2,2.6c0,0.4-0.1,0.8-0.1,1.1c0,0.2-0.1,0.4-0.1,0.6
			c-0.1,0.3-0.1,0.4,0.1,0.2c0.1-0.1,0.1-0.1-0.1,0c-0.7,0-1.5,0.2-2.2,0.4c-0.9,0.1-1.8,0.3-2.8,0.4c-2.3,0.4-6.3,0.7-5.8,4
			c0.2,1.3,1.2,2.1,2.5,2.1c1.7-0.1,3.4-0.4,5.1-0.6c1.7-0.2,3.4-0.4,5.1-0.6c1.3-0.1,3.2,0,4.2-1.1c1.1-1.3,0.5-3.3,0.3-4.8
			c-0.3-1.9-0.6-3.9-0.8-5.8c-0.1-0.6-0.8-0.9-1.4-0.8c-0.6,0.2-0.9,0.8-0.8,1.4c0.2,1.5,0.4,2.9,0.6,4.4c0.1,0.7,0.2,1.5,0.3,2.2
			c0.1,0.5,0.3,1.2,0.2,1.8c-0.1,0.4-0.4,0.3-0.8,0.4c-0.8,0.1-1.5,0.2-2.3,0.3c-1.4,0.2-2.9,0.3-4.3,0.5s-2.9,0.3-4.3,0.5
			c-0.3,0-0.6,0.1-0.9,0.1c-0.2,0-0.3,0-0.3,0.1c-0.1-0.2-0.1-0.5,0-0.6c0.5-0.8,2.2-0.8,3-0.9c1.5-0.2,3-0.5,4.5-0.7
			c1.4-0.2,3-0.3,3.3-1.9c0.2-1.6,0.3-3.3,0.4-4.9C179.8,123.7,177.6,123.7,177.5,125.1L177.5,125.1z"/>
	</g>
</g>
<g>
	<path class="st0" d="M128.1,108.5c1,2.9,2,5.9,3,8.9c0.1,0.4,0.2,0.8,0.1,1.1c-0.1,0.3-0.5,0.6-0.8,0.8c-0.9,0.5-1.8,1.1-2.7,1.6
		c-1,0.6-2.1,1.2-2.6,2.3c-0.5,1.1-0.2,2.6,0.9,3c2.6-3.2,7-3.9,10.8-5.3c0.3-0.1,0.7-0.3,0.8-0.6c0.3-0.5,0.1-1-0.2-1.5
		c-2.2-4.4-5.8-8.2-6.9-13"/>
	<g>
		<path class="st0" d="M127,108.8c0.8,2.2,1.5,4.5,2.3,6.7c0.2,0.6,0.4,1.2,0.6,1.7c0.2,0.5,0.3,0.7-0.1,1c-0.8,0.7-2.1,1.2-3,1.8
			c-1.3,0.8-2.8,1.9-3.1,3.5c-0.3,1.6,0.4,3.1,1.9,3.7c0.3,0.1,0.8,0,1.1-0.3c1.6-1.9,3.9-2.8,6.2-3.6c1.2-0.4,2.4-0.8,3.6-1.2
			c1.1-0.4,2.2-0.8,2.3-2.1c0.1-1.2-0.8-2.5-1.4-3.6c-0.7-1.2-1.4-2.3-2.2-3.4c-1.5-2.4-2.9-4.8-3.6-7.5c-0.3-1.4-2.5-0.8-2.1,0.6
			c0.6,2.5,1.8,4.8,3.1,6.9c0.6,1.1,1.3,2.1,2,3.1c0.4,0.6,0.7,1.2,1.1,1.7c0.3,0.5,0.8,1.1,0.9,1.6c0.1,0.3,0.2,0.1-0.1,0.3
			c-0.2,0.1-0.6,0.2-0.9,0.3c-0.5,0.2-1.1,0.4-1.6,0.5c-1.1,0.4-2.2,0.7-3.3,1.1c-2.1,0.8-4.1,1.9-5.6,3.6c0.4-0.1,0.7-0.2,1.1-0.3
			c-0.4-0.2-0.4-1-0.2-1.3c0.3-0.7,1.1-1.2,1.7-1.6c0.7-0.4,1.5-0.9,2.2-1.3c0.7-0.4,1.6-0.8,2.1-1.5c0.9-1.4-0.3-3.5-0.8-4.9
			c-0.7-2.1-1.4-4.1-2.1-6.2C128.7,106.8,126.5,107.4,127,108.8L127,108.8z"/>
	</g>
</g>
<g>
	<path class="st0" d="M52.9,56.8c-3.2-9.2-1.9-23.8-6.1-31.3c-1.2-2.2-2.7-3.4-4.2-4.3c-1.8-1.1-3.7-1.7-5.4-0.3
		c-1.7,1.4-3.1,5.3-2.6,9c-0.8,1.4-2.1,0.1-2.4-2c-0.3-2.1,0.2-4.3,0.9-5.9c1.3-3.1,3.2-4.8,5.2-5.2c2-0.4,3.9,0.4,5.8,1.6
		c1.4,0.9,2.8,2,4,3.9c2.1,3.7,2.9,9.8,3.6,15.5c0.6,5.4,1.2,10.8,1.9,16.2"/>
	<g>
		<path class="st0" d="M53.4,56.3c-2.5-7.1-2.2-16.5-3.8-24.4c-0.8-4.1-2.2-7.5-4.1-9.6c-2.2-2.3-5-4-7.4-3.1c-2.4,0.9-4.6,5.6-4,11
			c0-0.4,0.1-0.7,0.1-1.1c-0.3,0.5-0.8,0.2-1.1-0.2c-0.5-0.7-0.6-1.7-0.5-2.8c0.1-2.4,1.1-4.4,2-5.6c2.1-2.8,4.7-3.1,7-2.1
			c2.3,0.9,4.9,2.3,6.5,5.9c1.5,3.2,2.1,7.7,2.6,12c0.7,6,1.4,12,2.1,18.1c0.2,1.4,1.2,0.8,1-0.6c-0.7-6.5-1.4-13-2.2-19.4
			C51,29.3,50,24.1,47.9,20.9c-1.1-1.7-2.5-2.7-3.8-3.5c-1.5-0.9-3-1.6-4.6-1.7c-2.6-0.2-5.5,1.6-7.1,6.1c-0.8,2.2-1.3,5.6-0.4,8
			c0.7,1.9,2,2.4,2.9,0.9c0.1-0.2,0.2-0.7,0.1-1.1c-0.5-4.9,2-8.2,4-8.4c1.2-0.1,2.4,0.4,3.5,1.1c1.1,0.7,2.2,1.5,3.2,2.8
			c3.3,4.4,3.7,13.2,4.5,20.4c0.5,4.1,1.1,8.3,2.3,11.8C52.8,58.6,53.8,57.4,53.4,56.3L53.4,56.3z"/>
	</g>
</g>
<g>
	<path class="st0" d="M67.8,51c-1-5.5-2.1-10.9-3.1-16.4c-1.3-6.6-2.6-13.3-4.6-19.2S55,4.5,51.4,2.8c-2.2-1.1-4.7-0.7-6.5,2.1
		c-1.7,2.8-2.3,8.4-0.8,11.5c1.4-1.5,0.1-6.2,1.1-8.6c0.3-0.6,0.7-1,1.1-1.3c2.8-2,6.1-0.4,8.5,3s4.1,8.3,5.6,13.3
		c2.6,9.3,4.4,19.5,5.4,30"/>
	<g>
		<path class="st0" d="M68.4,50.7c-1.3-6.7-2.6-13.5-3.9-20.2c-1.2-6-2.5-12-4.5-17.2C58.2,8.8,56,5,53.3,2.9
			c-2.6-2-5.8-2.6-8.2,0.5c-2.3,3-3.2,9.6-1.3,13.9c0.2,0.4,0.5,0.4,0.7,0.2c0.8-1,1-2.6,1-4.3c0-1.8-0.3-4.1,0.7-5.1
			c2.3-2.4,5.4-0.9,7.5,1.5c2.3,2.6,4,6.7,5.3,11c1.5,4.7,2.7,9.7,3.7,14.8c1.1,5.8,2,11.8,2.5,18c0.1,1.4,1.3,0.8,1.1-0.6
			c-1-11.5-3.1-22.8-6.2-32.9c-1.4-4.5-3.1-8.7-5.4-11.6c-2.2-2.8-5.1-4.2-7.7-3c-1.3,0.6-2.4,1.8-2.7,4.5c-0.1,1.1,0,2.2,0,3.3
			c0,0.9,0,2.1-0.4,2.7c0.2,0.1,0.5,0.1,0.7,0.2c-1.6-3.5-0.4-9,1.6-10.9c2.4-2.4,5.3-1.2,7.6,1c5.2,5.1,7.7,15.7,9.7,25.6
			c1.3,6.7,2.6,13.3,3.8,20C67.5,52.6,68.6,52,68.4,50.7L68.4,50.7z"/>
	</g>
</g>
</svg>
