<?xml version="1.0" encoding="utf-8"?>
<!-- Generator: Adobe Illustrator 24.0.3, SVG Export Plug-In . SVG Version: 6.00 Build 0)  -->
<svg version="1.1" id="Layer_1" xmlns="http://www.w3.org/2000/svg" xmlns:xlink="http://www.w3.org/1999/xlink" x="0px" y="0px"
	 viewBox="0 0 141.7 198.4" style="enable-background:new 0 0 141.7 198.4;" xml:space="preserve">
<style type="text/css">
	.st0{fill:#333333;}
	.st1{stroke:#000000;stroke-width:0.8479;stroke-miterlimit:10;}
</style>
<g>
	<path class="st0" d="M33.1,70.3C27.6,58.7,12.7,46.6,9.6,35.7c-0.9-3.2-0.6-5.8,0-8.2c0.7-2.7,2-5.2,5-5.7s8,1.8,11,5.7
		c2.1,0.5,2.1-2,0.5-4.2c-1.7-2.2-4.2-3.8-6.4-4.6c-4.2-1.6-7.6-1.2-9.9,0.4c-2.2,1.6-3.4,4.3-4.2,7.2c-0.6,2.2-0.9,4.6-0.2,7.5
		c1.4,5.5,6.4,11.9,11.1,17.7c4.5,5.6,9,11.1,13.4,16.7"/>
	<g>
		<path class="st0" d="M32.2,70.3c-4.3-9-13.3-17.3-19.2-26.1c-3.1-4.6-5-9-5-12.8c-0.1-4.3,1.1-8.6,4.3-10.2
			c3.2-1.6,9.7,0.5,14.2,6.1c-0.4-0.3-0.8-0.6-1.2-0.9c0.8,0.2,0.9-0.6,0.8-1.2c-0.2-1-1-2.1-2.1-3.1c-2.4-2-5.2-2.9-7.2-3.1
			c-4.7-0.6-7.4,1.8-8.8,5C6.6,27,5.4,30.9,7.2,35.9c1.6,4.4,5.2,9.2,8.7,13.6c4.9,6.2,10,12.4,15,18.6c1.2,1.4-0.4,1.9-1.6,0.5
			c-5.3-6.7-10.8-13.3-16-20c-4.1-5.3-8.1-11.1-9.1-16.1c-0.5-2.7-0.2-4.9,0.3-7C5.2,23.2,6,21,7.4,19.4c2.4-2.7,6.8-4,12.6-1.5
			c2.9,1.2,6.5,3.8,7.9,6.9c1.1,2.5,0.4,4.2-1.9,3.7c-0.4-0.1-0.9-0.5-1.2-0.9c-4.1-5.1-9.6-5.6-11.7-3.8c-1.3,1.1-1.9,2.7-2.4,4.5
			c-0.4,1.7-0.7,3.5-0.4,5.7c1,7.3,8.8,15.7,14.9,23.2c3.5,4.3,6.8,8.7,8.9,13.1C34.8,71.9,32.9,71.7,32.2,70.3L32.2,70.3z"/>
	</g>
</g>
<g>
	<path class="st0" d="M51.6,74.4c1.4-7,2.7-14,4-21c1.6-8.5,3.3-17,3.9-24.8s0.1-14.7-2.3-17.9c-1.5-1.9-3.8-2.2-6.5,0.6
		c-2.7,2.9-5.5,9.5-5.4,13.9c1.8-1.4,2.6-7.5,4.5-10.1c0.5-0.7,1-1,1.5-1.3c3.3-1.6,5.4,1.3,6.1,6.1s0.2,11.4-0.7,17.9
		c-1.6,12.2-4.2,25.1-7.7,38.2"/>
	<g>
		<path class="st0" d="M52.2,74.2c1.7-8.6,3.4-17.3,5-25.8c1.5-7.7,2.8-15.4,3.2-22.3c0.3-5.9,0-11.2-1.5-14.7
			c-1.4-3.3-4-4.9-7.4-1.8c-3.3,3-6.8,10.8-6.8,16.6c0,0.5,0.3,0.7,0.5,0.4c1.1-1,1.9-2.9,2.7-5c0.7-2.2,1.5-5.1,2.7-6
			c3-2.3,5.1,0.5,5.9,4c0.9,3.8,0.7,9.4,0.1,15c-0.7,6.1-1.7,12.6-2.9,19.1c-1.4,7.4-3.2,15.1-5.2,22.7c-0.5,1.8,0.8,1.4,1.2-0.4
			c3.9-14.4,6.8-28.8,8.2-42c0.6-5.9,0.9-11.6,0.1-15.8c-0.8-4.1-2.7-6.7-5.5-5.9c-1.4,0.4-2.9,1.5-4.2,4.7c-0.5,1.3-0.9,2.7-1.4,4
			c-0.4,1.1-0.8,2.6-1.5,3.2c0.2,0.1,0.4,0.3,0.5,0.4c0.1-4.8,3.4-11.1,5.9-12.9c3-2.3,5.2,0,6.2,3.5c2.4,7.8,0.2,21.4-2.2,34.1
			c-1.6,8.5-3.3,17-4.9,25.6C50.7,76.3,51.9,75.9,52.2,74.2L52.2,74.2z"/>
	</g>
</g>
<path class="st1" d="M104.7,119.6c-0.1,4.2-0.6,22-13.9,34.5c-3.9,3.7-9.9,9.3-17.7,9.4c-15.8,0.1-31.5-22.6-31.5-43.8
	c0-20.1,14.3-44,31.5-43.8c15,0.2,27.8,18.8,30.8,33.6C104.8,113.6,104.7,117.1,104.7,119.6z"/>
<path class="st0" d="M103.9,109.3c0.4,2.1,0.7,4.9,0.7,4.9c0.1,0.8,0.4,4.5,0,9.1c-0.2,2.7-0.8,9.1-3.8,16.1
	c-1.5,3.6-4.7,11-10,14.7c-11.8,8.2-28.1,0.3-29.4-0.4c-2.6-1.3-10.8-5.6-15.2-14.8c-6.7-14.4-1.8-36.8,15.2-44.6
	C81.1,85.2,102.6,102.6,103.9,109.3z"/>
<circle class="st0" cx="46.3" cy="83.4" r="24.8"/>
<path class="st0" d="M92.2,135.4"/>
<path class="st0" d="M120.3,139.1"/>
</svg>
