<?xml version="1.0" encoding="utf-8"?>
<!-- Generator: Adobe Illustrator 24.0.3, SVG Export Plug-In . SVG Version: 6.00 Build 0)  -->
<svg version="1.1" id="Layer_1" xmlns="http://www.w3.org/2000/svg" xmlns:xlink="http://www.w3.org/1999/xlink" x="0px" y="0px"
	 viewBox="0 0 141.7 141.7" style="enable-background:new 0 0 141.7 141.7;" xml:space="preserve">
<style type="text/css">
	.st0{fill:#333333;}
</style>
<ellipse transform="matrix(0.8939 -0.4482 0.4482 0.8939 -13.1804 26.7477)" class="st0" cx="49.9" cy="41.2" rx="1" ry="3.4"/>
<ellipse transform="matrix(0.9897 -0.1429 0.1429 0.9897 -5.1268 7.972)" class="st0" cx="52.9" cy="39.7" rx="1.3" ry="3.4"/>
<ellipse transform="matrix(0.705 -0.7093 0.7093 0.705 -24.3691 16.6323)" class="st0" cx="7.8" cy="37.6" rx="1" ry="3.4"/>
<ellipse transform="matrix(0.8929 -0.4503 0.4503 0.8929 -14.9444 8.1976)" class="st0" cx="9.8" cy="35.5" rx="0.8" ry="3.5"/>
<ellipse transform="matrix(0.5793 -0.8151 0.8151 0.5793 -48.6516 62.8137)" class="st0" cx="36.5" cy="78.5" rx="0.8" ry="3.3"/>
<ellipse transform="matrix(0.8071 -0.5904 0.5904 0.8071 -37.4947 37.2853)" class="st0" cx="38.3" cy="76" rx="1.3" ry="3.4"/>
<ellipse transform="matrix(0.8584 -0.5129 0.5129 0.8584 -30.8057 49.8351)" class="st0" cx="74.9" cy="80.7" rx="1.2" ry="2.8"/>
<ellipse transform="matrix(0.9627 -0.2706 0.2706 0.9627 -18.359 23.7945)" class="st0" cx="77.1" cy="78.5" rx="1" ry="3"/>
<ellipse transform="matrix(0.7398 -0.6729 0.6729 0.7398 -51.8832 99.1681)" class="st0" cx="102.3" cy="116.7" rx="0.8" ry="3.3"/>
<ellipse transform="matrix(0.9144 -0.4048 0.4048 0.9144 -37.4323 52.1226)" class="st0" cx="104.5" cy="114.6" rx="1.3" ry="3.4"/>
<ellipse transform="matrix(0.6025 -0.7981 0.7981 0.6025 -64.0728 98.2203)" class="st0" cx="66.6" cy="113.4" rx="0.8" ry="3.3"/>
<ellipse transform="matrix(0.8237 -0.567 0.567 0.8237 -50.828 58.5698)" class="st0" cx="68.8" cy="111" rx="0.8" ry="3.8"/>
<ellipse transform="matrix(0.588 -0.8089 0.8089 0.588 -71.0712 137.8196)" class="st0" cx="99.7" cy="138.7" rx="1.4" ry="3"/>
<ellipse transform="matrix(0.8126 -0.5828 0.5828 0.8126 -60.0978 84.749)" class="st0" cx="101.7" cy="135.8" rx="1.2" ry="3.1"/>
<ellipse transform="matrix(0.454 -0.891 0.891 0.454 -0.8453 12.1526)" class="st0" cx="9.5" cy="6.8" rx="0.7" ry="3.3"/>
<ellipse transform="matrix(0.7087 -0.7055 0.7055 0.7087 -0.3338 9.3668)" class="st0" cx="11.2" cy="5.1" rx="0.7" ry="3.1"/>
</svg>
