<?xml version="1.0" encoding="utf-8"?>
<!-- Generator: Adobe Illustrator 24.0.3, SVG Export Plug-In . SVG Version: 6.00 Build 0)  -->
<svg version="1.1" id="Layer_1" xmlns="http://www.w3.org/2000/svg" xmlns:xlink="http://www.w3.org/1999/xlink" x="0px" y="0px"
	 viewBox="0 0 28.3 28.3" style="enable-background:new 0 0 28.3 28.3;" xml:space="preserve">
<style type="text/css">
	.st0{fill:#333333;}
</style>
<g>
	<path class="st0" d="M7.9,16.1C6.3,12.9,5,7.5,3.4,5C2.9,4.3,2.5,3.9,2.1,3.7C1.6,3.4,1.1,3.3,0.9,3.9S0.8,6,1.3,7.4
		c0,0.6-0.4,0.2-0.7-0.6S0.2,5.2,0.2,4.5C0.1,3.3,0.3,2.6,0.7,2.3c0.4-0.3,0.9-0.1,1.4,0.2c0.4,0.2,0.8,0.5,1.2,1.2
		C4.1,5,4.9,7.2,5.7,9.2c0.7,1.9,1.4,3.9,2.1,5.8"/>
	<g>
		<path class="st0" d="M8,15.9C6.7,13.4,5.8,10,4.6,7.2C4,5.7,3.4,4.5,2.8,3.9C2.1,3.2,1.3,2.7,0.9,3.2C0.5,3.7,0.5,5.5,1.2,7.5
			c0-0.1-0.1-0.3-0.1-0.4c0,0.2-0.1,0.1-0.2,0c-0.2-0.2-0.3-0.6-0.4-1C0.3,5.2,0.3,4.4,0.3,3.9C0.5,2.7,1,2.5,1.6,2.7
			c0.6,0.2,1.3,0.5,2,1.8c0.6,1.1,1.2,2.7,1.8,4.2c0.8,2.2,1.5,4.3,2.3,6.5c0.2,0.5,0.3,0.2,0.2-0.3C7,12.6,6.2,10.3,5.3,8
			C4.7,6.1,3.9,4.3,3.1,3.2C2.7,2.7,2.3,2.4,2,2.2C1.6,1.9,1.2,1.8,0.9,1.8C0.3,1.9-0.1,2.7,0,4.5c0.1,0.9,0.3,2.1,0.8,3
			c0.3,0.7,0.7,0.8,0.7,0.2c0-0.1,0-0.3-0.1-0.4C0.8,5.5,0.9,4.1,1.3,3.9c0.2-0.1,0.5,0,0.8,0.2c0.3,0.2,0.6,0.4,0.9,0.8
			c1.1,1.4,2.1,4.6,3.1,7.2c0.5,1.5,1.1,3,1.7,4.2C8.1,16.7,8.2,16.3,8,15.9L8,15.9z"/>
	</g>
</g>
<g>
	<path class="st0" d="M8.3,17.7c0.7-2,1.4-3.9,2.1-5.9c0.8-2.4,1.7-4.8,2.8-6.8s2.4-3.7,3.7-4.1c0.8-0.3,1.6,0,2,1.1
		s0.2,3.2-0.5,4.3c-0.4-0.6,0.4-2.3,0.2-3.2c0-0.3-0.2-0.4-0.3-0.5c-0.8-0.9-2-0.5-3,0.6S13.4,6,12.6,7.8c-1.5,3.3-2.7,7-3.7,10.8"
		/>
	<g>
		<path class="st0" d="M8.1,17.6c0.9-2.4,1.7-4.8,2.6-7.2c0.8-2.2,1.6-4.3,2.6-6.1c0.9-1.5,1.9-2.8,2.9-3.5c1-0.6,2.1-0.6,2.7,0.7
			c0.6,1.3,0.5,3.7-0.5,5.2c-0.1,0.1-0.2,0.1-0.2,0c-0.2-0.4-0.2-1-0.1-1.7c0.1-0.7,0.3-1.5,0.1-1.9c-0.6-1-1.8-0.7-2.6,0.1
			c-0.9,0.8-1.8,2.3-2.5,3.8c-0.8,1.6-1.5,3.4-2.2,5.2c-0.8,2.1-1.4,4.3-2,6.5c-0.1,0.5-0.5,0.2-0.3-0.3c1.1-4.2,2.5-8.3,4.2-11.8
			c0.7-1.6,1.6-3,2.5-4c0.9-0.9,2-1.3,2.8-0.7c0.4,0.3,0.7,0.8,0.6,1.8c0,0.4-0.1,0.8-0.2,1.2c-0.1,0.3-0.1,0.8,0,1
			c-0.1,0-0.2,0-0.2,0c0.8-1.2,0.7-3.3,0.2-4.1c-0.6-1-1.7-0.8-2.6-0.1c-2.1,1.6-3.6,5.3-4.9,8.9c-0.9,2.4-1.7,4.8-2.6,7.2
			C8.3,18.3,8,18.1,8.1,17.6L8.1,17.6z"/>
	</g>
</g>
<path class="st0" d="M27.9,13.6c0.1,0.6,0.2,1.4,0.2,1.4c0,0.2,0.1,1.3,0,2.6c-0.1,0.8-0.2,2.6-1.1,4.7c-0.4,1.1-1.3,3.2-2.9,4.3
	c-3.4,2.4-8.1,0.1-8.5-0.1c-0.7-0.4-3.1-1.6-4.4-4.3c-1.9-4.2-0.5-10.7,4.3-13C21.3,6.6,27.5,11.6,27.9,13.6z"/>
<ellipse class="st0" cx="8.5" cy="14.1" rx="7.1" ry="7.2"/>
<path class="st0" d="M18.8,26.9"/>
<path class="st0" d="M26.9,28"/>
</svg>
