<?xml version="1.0" encoding="utf-8"?>
<!-- Generator: Adobe Illustrator 24.0.3, SVG Export Plug-In . SVG Version: 6.00 Build 0)  -->
<svg version="1.1" id="Layer_1" xmlns="http://www.w3.org/2000/svg" xmlns:xlink="http://www.w3.org/1999/xlink" x="0px" y="0px"
	 viewBox="0 0 226.8 141.7" style="enable-background:new 0 0 226.8 141.7;" xml:space="preserve">
<style type="text/css">
	.st0{fill:#f7f7f7;}
</style>
<circle class="st0" cx="144.4" cy="54.3" r="33.3"/>
<circle class="st0" cx="99.9" cy="66.7" r="24.8"/>
<ellipse transform="matrix(0.7071 -0.7071 0.7071 0.7071 -51.8655 63.8901)" class="st0" cx="51.2" cy="94.6" rx="45.9" ry="33.3"/>
<g>
	<path class="st0" d="M135.7,32.2c-2-5.8,2.3-12.2,7.8-14.7c5.5-2.5,11.8-2.1,17.8-1.9c4,0.2,8,0.3,11.9-0.6
		c3.9-0.8,7.7-2.7,10.1-5.9c-0.2-1.9-2.8-2.6-4.5-1.9s-3.1,2.2-4.9,2.9c-1.5,0.6-3.1,0.6-4.8,0.6c-6.8,0-13.6,0.5-20.3,1.5
		c-4.4,0.6-8.8,1.6-12.5,4.1c-3.6,2.5-6.2,7-5.3,11.4"/>
	<g>
		<path class="st0" d="M134.3,32.6c-2.3-7,2.8-14,9-16.6c8.5-3.7,17.9-1,26.7-1.9c4.6-0.5,9.3-2.2,12.3-5.9c-0.1,0.5-0.2,1-0.3,1.5
			c-0.3-1.6-2.3-1.1-3.3-0.6c-1.7,1-3.2,2.3-5.1,2.8c-1.9,0.5-4,0.3-6,0.4c-2.1,0-4.3,0.1-6.4,0.2c-4.3,0.2-8.5,0.7-12.8,1.3
			c-4,0.6-8.2,1.5-11.5,4c-2.8,2.1-5.1,5.8-4.4,9.5c0.3,1.9-2.5,2.8-2.9,0.8c-0.7-3.7,0.5-7.3,2.8-10.2c2.7-3.4,6.8-5.2,10.8-6.2
			c4.5-1.1,9.2-1.6,13.8-2c4.7-0.4,9.4-0.3,14.1-0.5c2.4-0.1,3.9-1.6,5.9-2.7c1.6-0.9,3.4-1.3,5.2-0.6c1.4,0.5,3.3,2.4,2.4,4.1
			c-0.8,1.7-3,3.1-4.5,4.1c-8,4.9-17.5,2.8-26.3,3c-4.7,0.1-9.8,1-13.3,4.3c-2.8,2.7-4.6,6.5-3.4,10.4
			C137.7,33.7,134.9,34.5,134.3,32.6L134.3,32.6z"/>
	</g>
</g>
<g>
	<path class="st0" d="M167,76.3c2.4-1.4,5.3-1.3,7.9-0.4s4.8,2.5,7,4.2c8,6.1,15.6,12.6,22.8,19.5c1.2,1.1,2.4,2.3,3.9,2.8
		c1.5,0.5,3.5,0.2,4.3-1.2c-7.7-6.8-15.3-13.6-23-20.4c-3.9-3.5-7.9-7-12.8-9.1s-10.8-2.3-15.1,0.7"/>
	<g>
		<path class="st0" d="M167.6,77.7c3.3-1.8,7-0.6,10,1.3c3.3,2.1,6.4,4.7,9.4,7.2c3.1,2.5,6.2,5.1,9.1,7.8c2.9,2.6,5.7,5.4,8.6,8
			c2.5,2.3,7,3.8,9.3,0.3c0.5-0.7,0.3-1.5-0.3-2.1c-6.8-6.1-13.7-12.2-20.5-18.3c-5.9-5.2-12-11.2-20-12.7
			c-4.2-0.8-8.5-0.2-12.1,2.2c-1.6,1.1,0.2,3.4,1.9,2.4c6.4-4.2,14.4-0.9,19.8,3.2c3,2.3,5.8,4.8,8.6,7.3c3.2,2.8,6.4,5.7,9.6,8.6
			c3.6,3.2,7.3,6.5,10.9,9.7c-0.1-0.7-0.2-1.4-0.3-2.1c-1.2,1.8-3.4,0.5-4.7-0.5c-1.9-1.5-3.5-3.3-5.3-4.9
			c-3.7-3.4-7.5-6.7-11.3-9.9c-3.7-3.1-7.5-6.4-11.6-8.8c-3.7-2.2-8.4-3.5-12.5-1.3C164.7,75.8,165.9,78.6,167.6,77.7L167.6,77.7z"
			/>
	</g>
</g>
<g>
	<path class="st0" d="M64.6,122.4c0.8,3.6,0.6,7.5-0.4,11c-0.2,0.9-0.5,2,0.3,2.5c0.3,0.2,0.7,0.2,1,0.2c2.4,0.1,4.9,0.2,7.3,0.3
		c0.2,0,0.4,0,0.6,0c0.8-0.2,1.1-1.3,0.8-2s-1.1-1.2-1.8-1.6c-1.4-0.7-2.9-1.1-4.5-1.1c1.3-3.6,2.3-7.2,2.8-11"/>
	<g>
		<path class="st0" d="M63.1,122.8c0.5,2.6,0.6,5.2,0.2,7.8c-0.3,2-1.9,5.1,0.4,6.6c1.1,0.7,2.7,0.5,4,0.6c1.4,0.1,2.8,0.1,4.3,0.2
			c1.3,0.1,2.5,0.1,3.3-1c0.7-0.9,0.8-2.2,0.3-3.3c-0.6-1.2-1.8-1.9-2.9-2.4c-1.5-0.6-3.1-1-4.7-1.1c0.5,0.6,1,1.3,1.4,1.9
			c1.3-3.6,2.2-7.2,2.8-11c0.1-0.8-0.2-1.6-1.1-1.8c-0.7-0.2-1.7,0.2-1.8,1.1c-0.5,3.8-1.4,7.4-2.8,11c-0.4,1,0.6,1.8,1.4,1.9
			c1.2,0.1,2.4,0.4,3.6,0.9c0.4,0.2,0.8,0.4,1.2,0.7c0.2,0.2,0.1,0.2,0.2,0.4c0,0,0.3-0.1,0.2-0.1c-0.2-0.1-0.6,0-0.8,0
			c-0.7,0-1.4-0.1-2.1-0.1c-1.3-0.1-2.7-0.1-4-0.2c-0.3,0-0.6,0-0.9,0c-0.2,0,0.2,0.1,0.2,0.2c0-0.3,0.1-0.7,0.2-1
			c0.3-1.3,0.6-2.5,0.8-3.8c0.3-2.7,0.2-5.3-0.4-8C65.6,120.2,62.7,120.9,63.1,122.8L63.1,122.8z"/>
	</g>
</g>
<g>
	<path class="st0" d="M96.1,88c-1.5,3.8-3,7.6-4.5,11.5c-0.1,0.2-0.1,0.4-0.1,0.6c0.1,0.3,0.4,0.4,0.7,0.6c1.3,0.5,2.7,0.9,4,1.4
		c0.9,0.3,1.8,0.6,2.7,0.4c0.9-0.2,1.8-1,1.6-1.9c-0.3-1.7-3.5-1.9-3.4-3.6c0-0.3,0.2-0.6,0.3-0.9c0.6-1.3,1.2-2.5,1.7-3.8"/>
	<g>
		<path class="st0" d="M94.6,87.6c-1.1,2.8-2.2,5.5-3.2,8.3c-0.3,0.7-0.5,1.3-0.8,2c-0.3,0.7-0.6,1.3-0.6,2.1c0,1.7,1.8,2.1,3.2,2.6
			c2.4,0.8,5.7,2.6,7.9,0.4c1-0.9,1.3-2.3,0.7-3.5c-0.4-0.8-1.1-1.3-1.9-1.8c-0.4-0.2-0.7-0.4-1.1-0.6c-0.2-0.1,0.2,0.1,0,0
			c-0.1-0.1-0.2-0.2-0.2-0.2c0.1,0.1,0.1,0.2,0,0c0,0,0.1,0.3,0.1,0.3c0,0,0.7-1.7,0.8-1.8c0.3-0.8,0.7-1.5,1-2.3
			c0.3-0.7,0.2-1.6-0.5-2.1c-0.7-0.4-1.7-0.2-2.1,0.5c-0.5,1-0.9,2-1.4,3c-0.4,0.9-0.9,1.8-0.8,2.9c0.2,1.5,1.5,2.2,2.7,2.9
			c0.1,0.1,0.3,0.2,0.4,0.2c0.1,0,0.4,0.3,0.2,0.1c0.2,0.1,0.2,0.2,0.2,0.3c0-0.3-0.1,0-0.2,0c-0.3,0.1-0.4,0.2-0.8,0.2
			c-1-0.1-2-0.6-2.9-0.9c-0.5-0.2-1.1-0.4-1.6-0.6c-0.2-0.1-0.4-0.2-0.7-0.2c-0.1-0.1-0.3-0.1-0.4-0.1c0.1,0,0.2,0.1,0.2,0.1
			c0.1,0.2,0.1,0.5,0.2,0.8c0-0.2,0.3-0.9,0.5-1.2c0.2-0.4,0.3-0.9,0.5-1.3c0.4-1,0.8-2,1.2-3.1c0.8-2,1.6-4,2.3-6
			c0.3-0.8-0.3-1.7-1.1-1.8C95.6,86.3,94.9,86.8,94.6,87.6L94.6,87.6z"/>
	</g>
</g>
<g>
	<path class="st0" d="M129.4,81.5c0,4.5,0,9,0,13.5c0,0.2,0,0.4,0.1,0.6c0.2,0.2,0.5,0.2,0.8,0.2c2.9,0,5.7,0.1,8.5,0.1
		c0.7-0.9,1.1-2.1,0.9-3.3c-1.7-0.1-3.4-0.2-5.1-0.3c-0.5,0-1.1-0.1-1.4-0.5c-0.3-0.4-0.2-1,0-1.5c0.5-2,1.1-3.9,1.6-5.9"/>
	<g>
		<path class="st0" d="M127.9,81.5c0,2.7,0,5.4,0,8.1c0,1.3,0,2.7,0,4c0,1.3-0.2,2.9,1.2,3.6c0.5,0.3,1.2,0.2,1.8,0.2
			c0.7,0,1.3,0,2,0c1.3,0,2.7,0,4,0.1c0.7,0,1.3,0.1,2,0c0.8-0.1,1.3-0.6,1.7-1.3c0.6-1.1,0.9-2.3,0.8-3.4c-0.1-0.8-0.6-1.4-1.5-1.5
			c-1.1-0.1-2.2-0.2-3.4-0.2c-0.6,0-1.1-0.1-1.7-0.1c0,0-0.4,0-0.4-0.1c0,0,0.4,0.4,0.3,0.4c0.1,0,0.4-1.3,0.4-1.5
			c0.1-0.5,0.3-1.1,0.4-1.6c0.3-1.1,0.6-2.1,0.9-3.2c0.5-1.9-2.4-2.7-2.9-0.8c-0.4,1.4-0.8,2.9-1.2,4.3c-0.4,1.3-1,2.8-0.4,4
			c0.7,1.3,2.1,1.4,3.3,1.5c1.5,0.1,3,0.2,4.5,0.3c-0.5-0.5-1-1-1.5-1.5c0.1,1-0.1,1.7-0.7,2.5c0.4-0.2,0.9-0.5,1.3-0.7
			c-1.5,0-3-0.1-4.6-0.1c-0.8,0-1.5,0-2.3,0c-0.6,0-1.4,0.1-1.9-0.1c0.2,0.1,0.4,0.3,0.7,0.4c0.1,0.4,0.2,0.4,0.1,0
			c0-0.1,0-0.2,0-0.3c0-0.3,0-0.6,0-0.9c0-0.6,0-1.2,0-1.7c0-1.2,0-2.3,0-3.5c0-2.3,0-4.6,0-6.9C130.9,79.6,127.9,79.6,127.9,81.5
			L127.9,81.5z"/>
	</g>
</g>
<g>
	<path class="st0" d="M25.1,77.9c-4-0.5-7.9-1.1-11.9-1.6c-0.3,0-0.6-0.1-0.8-0.3s-0.2-0.6-0.1-0.9c0.2-2.6,0.4-5.3,0.6-7.9
		c0.7-0.7,2-0.2,2.5,0.7s0.5,1.9,0.5,2.9c0,0.4,0.1,0.8,0.3,1c0.3,0.3,0.7,0.3,1.1,0.3c3.5,0.2,6.9,0.8,10.2,1.9"/>
	<g>
		<path class="st0" d="M25.1,76.4c-3.4-0.5-6.9-0.9-10.3-1.4c-0.4-0.1-0.8-0.1-1.2-0.2c-0.1,0-0.3-0.1-0.3-0.1
			c-0.3-0.1-0.2,0.1,0.4,0.5c0-0.1,0-0.2,0-0.2c0.1-0.3,0.1-0.8,0.1-1.2c0-0.5,0.1-0.9,0.1-1.4c0.1-1.8,0.3-3.5,0.4-5.3
			c-0.1,0.3-0.3,0.7-0.4,1.1c-0.3,0.2-0.3,0-0.1,0.1c0.1,0.1,0.2,0.1,0.3,0.2c0.3,0.5,0.3,1.2,0.3,1.8c0,0.8,0.1,1.7,0.6,2.3
			c0.6,0.7,1.3,0.9,2.2,0.9c3.4,0.3,6.7,0.8,9.9,1.9c1.8,0.6,2.6-2.3,0.8-2.9c-3-1-6.1-1.6-9.2-1.9c-0.3,0-0.7-0.1-1-0.1
			c-0.1,0-0.4-0.1-0.5,0c-0.2,0.1-0.1-0.2,0,0.1c0.2,0.5,0.2,0.1,0.2-0.2c0-0.4,0-0.8-0.1-1.3c-0.1-1.4-0.6-2.7-1.9-3.4
			c-1.1-0.7-2.8-0.7-3.7,0.4c-0.5,0.6-0.4,1.7-0.4,2.4c-0.1,0.8-0.1,1.6-0.2,2.4s-0.1,1.6-0.2,2.4c-0.1,0.8-0.2,1.6-0.1,2.4
			c0.4,1.8,2.2,1.8,3.6,2c3.6,0.5,7.2,1,10.7,1.4c0.8,0.1,1.5-0.8,1.5-1.5C26.6,77,26,76.5,25.1,76.4L25.1,76.4z"/>
	</g>
</g>
<g>
	<path class="st0" d="M86.1,49.7c-3.7-2-7.2-4.2-10.7-6.5c-0.1-0.1-0.2-0.2-0.3-0.3c0-0.1,0.1-0.2,0.1-0.3c1.7-2.6,3.4-5.2,5.1-7.9
		c0.2-0.3,0.4-0.7,0.8-0.9c1.1-0.7,2.5,0.6,2.6,1.8c0.1,1.3-0.6,2.5-1,3.7c-0.2,0.6-0.3,1.2-0.2,1.7c0.2,0.6,0.7,1.1,1.2,1.5
		c1.3,1.2,2.6,2.3,3.9,3.5"/>
	<g>
		<path class="st0" d="M86.9,48.4c-1.8-1-3.6-2-5.4-3.1c-0.9-0.5-1.7-1.1-2.6-1.6c-0.4-0.3-0.9-0.5-1.3-0.8
			c-0.2-0.1-0.4-0.3-0.6-0.4c-0.1,0-0.6-0.4-0.5-0.3c0.1,0.4,0.1,0.8,0.2,1.2c0,0.2,0.2-0.4,0.3-0.5c0.2-0.3,0.3-0.5,0.5-0.8
			c0.3-0.5,0.7-1,1-1.6c0.7-1,1.3-2,1.9-3c0.3-0.5,0.7-1,1-1.6c0.1-0.1,0.3-0.7,0.5-0.7c-0.2,0.1,0.1,0.2,0.2,0.3
			c0.2,0.2,0.2,0.5,0.1,0.8c-0.1,1-0.7,1.9-1,2.8c-0.3,1.1-0.4,2.2,0.2,3.2c0.6,1,1.6,1.7,2.4,2.4c0.9,0.8,1.8,1.6,2.8,2.4
			c1.4,1.3,3.6-0.8,2.1-2.1c-1.2-1-2.4-2.1-3.6-3.2c-0.3-0.3-1-0.7-1.2-1.2c-0.1-0.5,0.3-1.2,0.5-1.7c0.5-1.3,1.1-2.7,0.7-4.1
			c-0.3-1.2-1.3-2.3-2.6-2.7C80.9,32,79.8,32.8,79,34c-0.9,1.3-1.8,2.7-2.6,4.1c-0.8,1.3-1.8,2.6-2.5,3.9c-0.9,1.8,1.1,2.7,2.3,3.5
			c3,1.9,6.1,3.7,9.2,5.5C87,51.9,88.6,49.3,86.9,48.4L86.9,48.4z"/>
	</g>
</g>
<g>
	<path class="st0" d="M120.4,35.5c-3.4-1.1-6.7-2.1-10.1-3.2c-0.4-0.1-0.8-0.3-1.1-0.6c-0.8-0.7-0.4-2-0.1-3
		c0.7-1.9,1.5-3.8,2.2-5.7c0.2-0.6,0.5-1.2,1-1.6s1.3-0.5,1.7,0c0.2,0.2,0.2,0.5,0.3,0.8c0.2,2.2-0.6,4.6,0.6,6.5
		c0.7,1.1,2,1.7,3.3,2.2c1.7,0.7,3.3,1.4,5,2.1"/>
	<g>
		<path class="st0" d="M120.8,34c-2.8-0.9-5.7-1.8-8.5-2.7c-0.6-0.2-1.3-0.3-1.9-0.6c-0.2-0.1-0.2,0-0.2-0.4c0.1-0.5,0.3-1,0.5-1.5
			c0.3-0.7,0.6-1.5,0.9-2.2c0.5-1.2,0.9-2.6,1.5-3.8c0.1-0.1,0.2-0.2,0.2-0.3c0,0.1,0.1-0.1,0.1,0c0,0-0.3,0-0.3,0
			c-0.2-0.1-0.2-0.5-0.2-0.1c0,0.1,0,0.2,0,0.3c0,0.3,0,0.6,0,0.9c-0.1,2.5-0.4,5.1,1.7,7c1.1,1,2.4,1.5,3.7,2
			c1.5,0.6,3,1.2,4.5,1.8c0.8,0.3,1.7-0.3,1.8-1c0.2-0.9-0.3-1.5-1.1-1.9c-1.6-0.6-3.1-1.3-4.7-1.9c-1-0.4-2.2-0.8-2.8-1.7
			c-0.7-1-0.4-2.5-0.3-3.6c0.1-1.4,0.2-3.4-1.2-4.3c-1.4-0.9-3.1-0.3-4,0.9c-0.9,1.2-1.3,3-1.9,4.4c-1,2.5-3.2,6.7,0.4,8.2
			c1.6,0.7,3.4,1.1,5.1,1.6c1.9,0.6,3.7,1.2,5.6,1.8C121.8,37.5,122.6,34.6,120.8,34L120.8,34z"/>
	</g>
</g>
</svg>
