<?xml version="1.0" encoding="utf-8"?>
<!-- Generator: Adobe Illustrator 24.0.3, SVG Export Plug-In . SVG Version: 6.00 Build 0)  -->
<svg version="1.1" id="Layer_1" xmlns="http://www.w3.org/2000/svg" xmlns:xlink="http://www.w3.org/1999/xlink" x="0px" y="0px"
	 viewBox="0 0 226.77 141.73" style="enable-background:new 0 0 226.77 141.73;" xml:space="preserve">
<style type="text/css">
	.st0{fill:#f7f7f7;}
</style>
<circle class="st0" cx="144.41" cy="54.31" r="33.31"/>
<circle class="st0" cx="99.86" cy="66.69" r="24.76"/>
<ellipse transform="matrix(0.7071 -0.7071 0.7071 0.7071 -51.8634 63.8924)" class="st0" cx="51.19" cy="94.55" rx="45.9" ry="33.31"/>
<g>
	<path class="st0" d="M139.56,25.56c0.29-6.05-5.63-10.92-11.63-11.77c-5.99-0.85-11.97,1.23-17.71,3.14
		c-3.8,1.26-7.67,2.48-11.67,2.76c-4,0.28-8.19-0.46-11.45-2.8c-0.37-1.87,1.93-3.24,3.83-3.08c1.9,0.16,3.63,1.2,5.53,1.37
		c1.61,0.15,3.2-0.33,4.76-0.78c6.57-1.89,13.28-3.3,20.05-4.22c4.39-0.59,8.96-0.96,13.17,0.42c4.21,1.39,7.99,4.94,8.36,9.35"/>
	<g>
		<path class="st0" d="M141.06,25.56c0.21-7.27-6.68-12.48-13.36-13.3c-9.22-1.14-17.53,3.96-26.35,5.57
			c-4.62,0.84-9.55,0.51-13.5-2.24c0.25,0.43,0.5,0.86,0.74,1.3c-0.19-1.56,1.93-1.69,3.01-1.45c1.93,0.43,3.7,1.33,5.72,1.27
			c2.02-0.07,3.96-0.78,5.89-1.31c2.07-0.57,4.15-1.09,6.25-1.56c4.2-0.95,8.44-1.73,12.71-2.27c4.04-0.51,8.3-0.8,12.2,0.6
			c3.33,1.2,6.53,4.1,6.92,7.79c0.2,1.9,3.2,1.92,3,0c-0.39-3.72-2.5-6.76-5.54-8.87c-3.54-2.45-8-3.07-12.21-2.91
			c-4.66,0.18-9.34,1.03-13.91,1.92c-4.65,0.91-9.14,2.33-13.75,3.37c-2.4,0.54-4.2-0.41-6.48-0.93c-1.8-0.41-3.63-0.26-5.15,0.87
			c-1.22,0.91-2.5,3.16-1.22,4.54c1.27,1.36,3.76,2.16,5.5,2.62c9.06,2.4,17.68-2.2,26.25-4.41c4.58-1.18,9.72-1.79,14.09,0.44
			c3.44,1.75,6.29,4.93,6.18,8.97C138,27.49,141,27.49,141.06,25.56L141.06,25.56z"/>
	</g>
</g>
<g>
	<path class="st0" d="M168.12,70.42c1.04,2.52,0.54,5.46-0.71,7.88c-1.25,2.42-3.18,4.41-5.11,6.33
		c-7.1,7.07-14.62,13.74-22.49,19.94c-1.28,1.01-2.61,2.06-3.34,3.52c-0.73,1.46-0.64,3.46,0.64,4.47
		c7.79-6.65,15.57-13.3,23.36-19.94c3.99-3.41,8.06-6.91,10.73-11.43c2.67-4.52,3.73-10.34,1.39-15.05"/>
	<g>
		<path class="st0" d="M166.67,70.82c1.34,3.53-0.34,7.07-2.63,9.77c-2.54,3-5.52,5.68-8.38,8.37c-2.91,2.73-5.89,5.4-8.93,7.99
			c-2.98,2.55-6.12,4.92-9.11,7.46c-2.59,2.2-4.68,6.44-1.59,9.21c0.64,0.57,1.48,0.55,2.12,0c6.97-5.95,13.94-11.9,20.91-17.85
			c5.99-5.11,12.76-10.31,15.33-18.07c1.34-4.05,1.32-8.43-0.53-12.31c-0.83-1.74-3.41-0.22-2.59,1.51
			c3.27,6.89-1.1,14.34-5.88,19.21c-2.65,2.7-5.59,5.09-8.46,7.54c-3.26,2.79-6.53,5.58-9.79,8.36c-3.7,3.16-7.41,6.33-11.11,9.49
			c0.71,0,1.41,0,2.12,0c-1.58-1.41-0.05-3.48,1.12-4.56c1.76-1.63,3.76-3.03,5.61-4.55c3.87-3.18,7.66-6.47,11.34-9.87
			c3.54-3.27,7.32-6.54,10.34-10.31c2.73-3.39,4.62-7.88,2.99-12.2C168.89,68.23,165.99,69.01,166.67,70.82L166.67,70.82z"/>
	</g>
</g>
<g>
	<path class="st0" d="M64.55,122.43c0.77,3.63,0.63,7.45-0.41,11.02c-0.25,0.88-0.47,2.03,0.3,2.52c0.3,0.19,0.67,0.21,1.03,0.22
		c2.44,0.1,4.89,0.19,7.33,0.29c0.21,0.01,0.43,0.02,0.63-0.04c0.8-0.2,1.1-1.28,0.77-2.03c-0.33-0.75-1.09-1.23-1.84-1.58
		c-1.4-0.66-2.92-1.05-4.46-1.14c1.33-3.55,2.26-7.25,2.75-11.01"/>
	<g>
		<path class="st0" d="M63.11,122.83c0.52,2.55,0.6,5.23,0.15,7.8c-0.34,1.99-1.89,5.15,0.36,6.58c1.11,0.71,2.73,0.52,4,0.57
			c1.43,0.06,2.85,0.11,4.28,0.17c1.26,0.05,2.47,0.11,3.32-0.99c0.72-0.94,0.81-2.24,0.29-3.3c-0.58-1.18-1.75-1.85-2.9-2.35
			c-1.5-0.64-3.06-0.99-4.68-1.11c0.48,0.63,0.96,1.27,1.45,1.9c1.32-3.56,2.24-7.24,2.75-11.01c0.11-0.8-0.19-1.61-1.05-1.85
			c-0.7-0.19-1.74,0.24-1.85,1.05c-0.51,3.76-1.43,7.45-2.75,11.01c-0.36,0.98,0.56,1.83,1.45,1.9c1.22,0.09,2.45,0.38,3.57,0.88
			c0.41,0.18,0.82,0.38,1.15,0.69c0.24,0.22,0.14,0.24,0.2,0.38c-0.02-0.04,0.3-0.12,0.18-0.15c-0.23-0.06-0.59-0.02-0.82-0.03
			c-0.71-0.03-1.43-0.06-2.14-0.08c-1.32-0.05-2.65-0.1-3.97-0.16c-0.29-0.01-0.59-0.02-0.88-0.04c-0.17-0.01,0.2,0.12,0.2,0.17
			c0.01-0.3,0.09-0.66,0.18-1c0.34-1.27,0.6-2.54,0.76-3.84c0.33-2.66,0.18-5.35-0.36-7.98C65.61,120.15,62.72,120.95,63.11,122.83
			L63.11,122.83z"/>
	</g>
</g>
<g>
	<path class="st0" d="M96.08,87.97c-1.5,3.82-3,7.64-4.5,11.46c-0.07,0.18-0.14,0.37-0.1,0.56c0.07,0.3,0.41,0.45,0.7,0.55
		c1.34,0.47,2.68,0.94,4.02,1.4c0.88,0.31,1.81,0.62,2.73,0.45c0.92-0.17,1.78-1.02,1.61-1.93c-0.31-1.72-3.49-1.86-3.44-3.6
		c0.01-0.33,0.15-0.64,0.29-0.94c0.58-1.26,1.16-2.52,1.74-3.78"/>
	<g>
		<path class="st0" d="M94.63,87.57c-1.08,2.75-2.16,5.51-3.24,8.26c-0.26,0.67-0.52,1.33-0.78,2c-0.26,0.66-0.63,1.34-0.63,2.06
			c0.02,1.71,1.85,2.1,3.15,2.55c2.41,0.84,5.71,2.58,7.94,0.45c0.96-0.91,1.28-2.33,0.68-3.53c-0.4-0.8-1.14-1.34-1.9-1.79
			c-0.36-0.21-0.73-0.41-1.08-0.64c-0.2-0.13,0.15,0.14-0.02-0.01c-0.08-0.07-0.15-0.15-0.23-0.23c0.1,0.1,0.05,0.17,0.03,0
			c0,0.01,0.11,0.28,0.07,0.28c-0.02,0,0.69-1.65,0.77-1.83c0.35-0.76,0.7-1.51,1.04-2.27c0.34-0.74,0.21-1.62-0.54-2.05
			c-0.65-0.38-1.71-0.2-2.05,0.54c-0.46,1.01-0.93,2.02-1.39,3.03c-0.43,0.93-0.95,1.85-0.79,2.91c0.22,1.48,1.5,2.18,2.68,2.87
			c0.13,0.07,0.26,0.15,0.38,0.23c0.05,0.03,0.38,0.28,0.16,0.1c0.18,0.14,0.24,0.19,0.23,0.26c0.02-0.3-0.05-0.03-0.15,0.01
			c-0.27,0.11-0.44,0.18-0.76,0.15c-0.99-0.1-1.99-0.58-2.92-0.9c-0.54-0.19-1.07-0.37-1.61-0.56c-0.22-0.08-0.45-0.16-0.67-0.23
			c-0.13-0.05-0.27-0.09-0.4-0.14c0.08,0.01,0.15,0.06,0.2,0.14c0.07,0.25,0.14,0.5,0.2,0.76c-0.01-0.23,0.33-0.89,0.46-1.22
			c0.17-0.44,0.35-0.89,0.52-1.33c0.4-1.02,0.8-2.04,1.2-3.07c0.78-2,1.57-4,2.35-6c0.3-0.75-0.33-1.65-1.05-1.85
			C95.63,86.29,94.93,86.82,94.63,87.57L94.63,87.57z"/>
	</g>
</g>
<g>
	<path class="st0" d="M129.4,81.51c0,4.51-0.01,9.03-0.01,13.54c0,0.22,0.01,0.45,0.14,0.62c0.17,0.21,0.48,0.23,0.75,0.24
		c2.85,0.04,5.69,0.09,8.54,0.13c0.71-0.92,1.05-2.12,0.93-3.28c-1.69-0.12-3.37-0.23-5.06-0.35c-0.51-0.03-1.09-0.11-1.38-0.53
		c-0.29-0.41-0.17-0.97-0.03-1.46c0.54-1.97,1.08-3.93,1.62-5.9"/>
	<g>
		<path class="st0" d="M127.9,81.51c0,2.69,0,5.38-0.01,8.07c0,1.34,0,2.69,0,4.03c0,1.33-0.2,2.87,1.22,3.55
			c0.54,0.26,1.16,0.24,1.75,0.25c0.66,0.01,1.33,0.02,1.99,0.03c1.33,0.02,2.66,0.04,3.98,0.06c0.66,0.01,1.34,0.07,1.99,0.03
			c0.84-0.06,1.3-0.63,1.68-1.33c0.58-1.05,0.85-2.26,0.75-3.45c-0.07-0.85-0.63-1.44-1.5-1.5c-1.12-0.08-2.25-0.15-3.37-0.23
			c-0.56-0.04-1.13-0.05-1.69-0.12c0.01,0-0.4-0.02-0.37-0.07c0.01-0.02,0.41,0.38,0.3,0.41c0.1-0.03,0.36-1.35,0.4-1.5
			c0.15-0.54,0.3-1.07,0.44-1.61c0.3-1.07,0.59-2.14,0.89-3.22c0.51-1.86-2.38-2.66-2.89-0.8c-0.39,1.43-0.79,2.86-1.18,4.29
			c-0.35,1.26-1.01,2.77-0.36,4.03c0.67,1.29,2.05,1.4,3.34,1.49c1.5,0.1,3,0.2,4.5,0.31c-0.5-0.5-1-1-1.5-1.5
			c0.08,0.97-0.15,1.74-0.72,2.52c0.43-0.25,0.86-0.5,1.3-0.74c-1.52-0.02-3.04-0.05-4.55-0.07c-0.76-0.01-1.52-0.02-2.28-0.03
			c-0.58-0.01-1.37,0.12-1.91-0.08c0.22,0.13,0.44,0.26,0.66,0.39c0.14,0.42,0.18,0.43,0.15,0.03c0-0.1,0-0.19,0-0.29
			c0-0.29,0-0.58,0-0.86c0-0.58,0-1.15,0-1.73c0-1.15,0-2.31,0-3.46c0-2.31,0-4.61,0-6.92C130.9,79.58,127.9,79.57,127.9,81.51
			L127.9,81.51z"/>
	</g>
</g>
<g>
	<path class="st0" d="M25.15,77.92c-3.97-0.53-7.94-1.07-11.91-1.6c-0.31-0.04-0.64-0.1-0.83-0.34c-0.19-0.24-0.17-0.57-0.15-0.87
		c0.22-2.63,0.43-5.26,0.65-7.89c0.72-0.69,2.01-0.2,2.51,0.66s0.46,1.92,0.49,2.91c0.01,0.36,0.05,0.75,0.29,1.01
		c0.27,0.29,0.71,0.32,1.11,0.34c3.47,0.18,6.92,0.84,10.22,1.95"/>
	<g>
		<path class="st0" d="M25.15,76.42c-3.43-0.46-6.85-0.92-10.28-1.38c-0.4-0.05-0.8-0.1-1.19-0.16c-0.05-0.01-0.27-0.06-0.33-0.05
			c-0.31-0.09-0.19,0.08,0.38,0.51c0-0.08,0.01-0.15,0.01-0.23c0.12-0.35,0.07-0.85,0.1-1.21c0.04-0.46,0.08-0.91,0.11-1.37
			c0.15-1.77,0.29-3.54,0.44-5.31c-0.15,0.35-0.29,0.71-0.44,1.06c-0.31,0.25-0.28-0.03-0.13,0.13c0.08,0.09,0.21,0.12,0.28,0.23
			c0.33,0.47,0.26,1.24,0.28,1.78c0.02,0.81,0.07,1.65,0.62,2.3c0.57,0.67,1.34,0.86,2.18,0.92c3.4,0.27,6.67,0.82,9.92,1.9
			c1.84,0.61,2.62-2.29,0.8-2.89c-2.97-0.99-6.05-1.62-9.17-1.9c-0.34-0.03-0.67-0.06-1.01-0.08c-0.15-0.01-0.41-0.09-0.53-0.03
			c-0.17,0.08-0.11-0.21,0.03,0.11c0.21,0.48,0.17,0.05,0.16-0.21c-0.01-0.42-0.02-0.84-0.06-1.26c-0.15-1.37-0.65-2.7-1.9-3.42
			c-1.15-0.67-2.82-0.67-3.7,0.45c-0.48,0.61-0.39,1.68-0.45,2.43c-0.07,0.81-0.13,1.62-0.2,2.43s-0.13,1.62-0.2,2.43
			c-0.06,0.76-0.24,1.62-0.08,2.38c0.39,1.78,2.16,1.82,3.63,2.02c3.57,0.48,7.15,0.96,10.72,1.44c0.8,0.11,1.5-0.77,1.5-1.5
			C26.65,77.02,25.96,76.53,25.15,76.42L25.15,76.42z"/>
	</g>
</g>
<g>
	<path class="st0" d="M86.11,49.69c-3.65-2.02-7.23-4.17-10.72-6.45c-0.12-0.08-0.24-0.17-0.26-0.31c-0.01-0.1,0.05-0.2,0.11-0.29
		c1.69-2.62,3.39-5.24,5.08-7.86c0.21-0.33,0.43-0.67,0.76-0.87c1.08-0.68,2.5,0.58,2.59,1.85c0.09,1.27-0.6,2.45-1.03,3.66
		c-0.2,0.56-0.34,1.17-0.18,1.74c0.18,0.64,0.7,1.11,1.2,1.55c1.31,1.15,2.62,2.3,3.93,3.45"/>
	<g>
		<path class="st0" d="M86.87,48.39c-1.82-1.01-3.63-2.05-5.42-3.13c-0.87-0.52-1.74-1.06-2.6-1.6c-0.43-0.27-0.86-0.54-1.29-0.81
			c-0.21-0.14-0.43-0.27-0.64-0.41c-0.08-0.05-0.58-0.44-0.49-0.27c0.05,0.39,0.1,0.77,0.15,1.16c-0.04,0.22,0.23-0.36,0.29-0.45
			c0.17-0.26,0.34-0.52,0.51-0.79c0.34-0.52,0.68-1.05,1.02-1.57c0.65-1,1.3-2.01,1.95-3.01c0.34-0.52,0.68-1.05,1.02-1.57
			c0.08-0.12,0.33-0.67,0.47-0.73c-0.19,0.07,0.14,0.18,0.22,0.31c0.15,0.24,0.15,0.5,0.11,0.79c-0.13,0.99-0.7,1.9-1.01,2.84
			c-0.35,1.06-0.38,2.23,0.2,3.22c0.57,0.98,1.56,1.69,2.39,2.42c0.92,0.81,1.85,1.63,2.77,2.44c1.44,1.27,3.57-0.84,2.12-2.12
			c-1.19-1.05-2.39-2.1-3.58-3.15c-0.34-0.3-1.03-0.73-1.16-1.19c-0.14-0.51,0.3-1.25,0.48-1.71c0.52-1.28,1.05-2.68,0.66-4.08
			c-0.33-1.21-1.35-2.34-2.58-2.65c-1.53-0.38-2.64,0.5-3.44,1.71c-0.89,1.34-1.75,2.71-2.62,4.06c-0.83,1.29-1.84,2.57-2.53,3.94
			c-0.9,1.78,1.08,2.72,2.31,3.5c3,1.91,6.07,3.73,9.18,5.45C87.04,51.92,88.56,49.33,86.87,48.39L86.87,48.39z"/>
	</g>
</g>
<g>
	<path class="st0" d="M120.39,35.46c-3.36-1.06-6.71-2.12-10.07-3.18c-0.4-0.13-0.81-0.26-1.11-0.55c-0.77-0.74-0.43-2.01-0.05-3
		c0.74-1.89,1.48-3.79,2.22-5.68c0.23-0.6,0.49-1.23,0.99-1.63c0.5-0.4,1.34-0.47,1.74,0.04c0.19,0.23,0.25,0.54,0.28,0.84
		c0.25,2.2-0.61,4.65,0.61,6.5c0.73,1.11,2.03,1.67,3.26,2.17c1.68,0.68,3.35,1.37,5.03,2.05"/>
	<g>
		<path class="st0" d="M120.79,34.02c-2.83-0.89-5.65-1.79-8.48-2.68c-0.6-0.19-1.33-0.31-1.89-0.6c-0.23-0.12-0.21-0.05-0.17-0.42
			c0.06-0.5,0.28-0.99,0.46-1.45c0.28-0.73,0.57-1.46,0.86-2.2c0.48-1.23,0.86-2.6,1.5-3.76c0.06-0.1,0.16-0.21,0.2-0.3
			c-0.04,0.08,0.09-0.1,0.14-0.04c0.02,0.03-0.3-0.03-0.32-0.04c-0.25-0.14-0.15-0.5-0.19-0.06c-0.01,0.08,0.01,0.22,0.01,0.27
			c0.02,0.3,0.01,0.6,0.01,0.9c-0.07,2.5-0.4,5.14,1.69,6.99c1.08,0.95,2.43,1.45,3.74,1.99c1.51,0.62,3.02,1.23,4.53,1.85
			c0.75,0.31,1.65-0.33,1.85-1.05c0.24-0.86-0.29-1.54-1.05-1.85c-1.55-0.63-3.1-1.27-4.65-1.9c-0.98-0.4-2.2-0.8-2.8-1.73
			c-0.67-1.02-0.4-2.48-0.34-3.62c0.08-1.44,0.22-3.37-1.15-4.28c-1.36-0.9-3.06-0.31-3.97,0.92c-0.92,1.25-1.34,2.97-1.9,4.4
			c-0.98,2.52-3.21,6.68,0.45,8.16c1.64,0.66,3.41,1.1,5.1,1.64c1.86,0.59,3.71,1.17,5.57,1.76
			C121.84,37.49,122.63,34.6,120.79,34.02L120.79,34.02z"/>
	</g>
</g>
</svg>
