<svg id="Layer_1" data-name="Layer 1" xmlns="http://www.w3.org/2000/svg" viewBox="0 0 94.71 142.42"><defs><style>.cls-1{fill:none;}.cls-2{stroke:#000;stroke-miterlimit:10;stroke-width:0.6px;}.cls-3{fill:#333;}</style></defs><title>ant3gone</title><path class="cls-1" d="M33.1,70.3C27.6,58.7,12.7,46.6,9.6,35.7a15.15,15.15,0,0,1,0-8.2c.7-2.7,2-5.2,5-5.7s8,1.8,11,5.7c2.1.5,2.1-2,.5-4.2a14.74,14.74,0,0,0-6.4-4.6c-4.2-1.6-7.6-1.2-9.9.4s-3.4,4.3-4.2,7.2a14.42,14.42,0,0,0-.2,7.5c1.4,5.5,6.4,11.9,11.1,17.7,4.5,5.6,9,11.1,13.4,16.7" transform="translate(-3.94 -7.94)"/><path class="cls-1" d="M32.2,70.3C27.9,61.3,18.9,53,13,44.2c-3.1-4.6-5-9-5-12.8-.1-4.3,1.1-8.6,4.3-10.2s9.7.5,14.2,6.1l-1.2-.9c.8.2.9-.6.8-1.2A6.35,6.35,0,0,0,24,22.1,13.84,13.84,0,0,0,16.8,19,7.82,7.82,0,0,0,8,24a14.71,14.71,0,0,0-.8,11.9c1.6,4.4,5.2,9.2,8.7,13.6,4.9,6.2,10,12.4,15,18.6,1.2,1.4-.4,1.9-1.6.5-5.3-6.7-10.8-13.3-16-20C9.2,43.3,5.2,37.5,4.2,32.5a16.1,16.1,0,0,1,.3-7,16.46,16.46,0,0,1,2.9-6.1c2.4-2.7,6.8-4,12.6-1.5,2.9,1.2,6.5,3.8,7.9,6.9,1.1,2.5.4,4.2-1.9,3.7a2.55,2.55,0,0,1-1.2-.9c-4.1-5.1-9.6-5.6-11.7-3.8a8.56,8.56,0,0,0-2.4,4.5,14.93,14.93,0,0,0-.4,5.7c1,7.3,8.8,15.7,14.9,23.2,3.5,4.3,6.8,8.7,8.9,13.1.7,1.6-1.2,1.4-1.9,0Z" transform="translate(-3.94 -7.94)"/><path class="cls-1" d="M51.6,74.4c1.4-7,2.7-14,4-21,1.6-8.5,3.3-17,3.9-24.8s.1-14.7-2.3-17.9c-1.5-1.9-3.8-2.2-6.5.6s-5.5,9.5-5.4,13.9c1.8-1.4,2.6-7.5,4.5-10.1a4.36,4.36,0,0,1,1.5-1.3c3.3-1.6,5.4,1.3,6.1,6.1s.2,11.4-.7,17.9A300.59,300.59,0,0,1,49,76" transform="translate(-3.94 -7.94)"/><path class="cls-1" d="M52.2,74.2c1.7-8.6,3.4-17.3,5-25.8a173.49,173.49,0,0,0,3.2-22.3c.3-5.9,0-11.2-1.5-14.7-1.4-3.3-4-4.9-7.4-1.8s-6.8,10.8-6.8,16.6c0,.5.3.7.5.4,1.1-1,1.9-2.9,2.7-5s1.5-5.1,2.7-6c3-2.3,5.1.5,5.9,4,.9,3.8.7,9.4.1,15-.7,6.1-1.7,12.6-2.9,19.1-1.4,7.4-3.2,15.1-5.2,22.7-.5,1.8.8,1.4,1.2-.4a274.69,274.69,0,0,0,8.2-42c.6-5.9.9-11.6.1-15.8s-2.7-6.7-5.5-5.9c-1.4.4-2.9,1.5-4.2,4.7-.5,1.3-.9,2.7-1.4,4-.4,1.1-.8,2.6-1.5,3.2a2.18,2.18,0,0,1,.5.4c.1-4.8,3.4-11.1,5.9-12.9,3-2.3,5.2,0,6.2,3.5,2.4,7.8.2,21.4-2.2,34.1-1.6,8.5-3.3,17-4.9,25.6-.2,1.4,1,1,1.3-.7Z" transform="translate(-3.94 -7.94)"/><path class="cls-2" d="M74.65,90.82c-.07,3-.42,15.44-9.75,24.21-2.74,2.6-7,6.53-12.42,6.6-11.09.07-22.11-15.86-22.11-30.74,0-14.1,10-30.88,22.11-30.74C63,60.29,72,73.35,74.09,83.73A30.9,30.9,0,0,1,74.65,90.82Z" transform="translate(-3.94 -7.94)"/><path class="cls-1" d="M97.84,106.71c.36,1.89.63,4.41.63,4.41a49.92,49.92,0,0,1-3.42,22.68c-1.35,3.24-4.23,9.9-9,13.23-10.62,7.38-25.29.27-26.46-.36-2.34-1.17-9.72-5-13.68-13.32-6-13-1.62-33.12,13.68-40.14C77.32,85,96.67,100.68,97.84,106.71Z" transform="translate(-3.94 -7.94)"/><circle class="cls-1" cx="44.9" cy="82.95" r="24.8"/><path class="cls-3" d="M92.2,135.4" transform="translate(-3.94 -7.94)"/><path class="cls-3" d="M120.3,139.1" transform="translate(-3.94 -7.94)"/></svg>