<?xml version="1.0" encoding="utf-8"?>
<!-- Generator: Adobe Illustrator 24.0.3, SVG Export Plug-In . SVG Version: 6.00 Build 0)  -->
<svg version="1.1" id="Layer_1" xmlns="http://www.w3.org/2000/svg" xmlns:xlink="http://www.w3.org/1999/xlink" x="0px" y="0px"
	 viewBox="0 0 141.7 198.4" style="enable-background:new 0 0 141.7 198.4;" xml:space="preserve">
<style type="text/css">
	.st0{fill:#f7f7f7;}
	.st1{stroke:#333333;stroke-width:0.8479;stroke-miterlimit:10;}
</style>
<g>
	<path class="st0" d="M31.6,73.1c-5.7-10.9-10-29.6-15.7-38.2c-1.7-2.5-3.2-3.8-4.6-4.6c-1.7-1-3.3-1.3-4,0.7
		c-0.8,2.1-0.3,7.3,1.4,11.9c0,2-1.5,0.6-2.5-2c-1-2.5-1.4-5.5-1.5-7.7c-0.2-4.2,0.6-6.7,1.9-7.6c1.3-0.9,3-0.3,4.8,0.8
		c1.3,0.8,2.8,1.9,4.3,4.1c2.9,4.2,5.7,11.8,8.2,18.8c2.4,6.7,4.8,13.4,7.2,20.1"/>
	<g>
		<path class="st0" d="M31.7,72.3c-4.4-8.5-7.6-20.3-11.6-30c-2.1-5-4.3-9-6.4-11.2c-2.4-2.5-5-4-6.5-2.3c-1.4,1.6-1.3,8,1.1,14.7
			c-0.1-0.5-0.2-0.9-0.3-1.4c0,0.7-0.5,0.4-0.8,0c-0.6-0.7-1-2-1.4-3.4C5,35.7,5,33,5.2,31.2c0.5-4,2.2-4.8,4.3-4.2
			c2,0.6,4.4,1.9,6.9,6.1c2.2,3.8,4.3,9.3,6.2,14.6c2.7,7.4,5.4,14.9,8.1,22.4c0.6,1.7,1.1,0.8,0.5-1c-2.9-8-5.7-16.1-8.7-24
			c-2.3-6.3-4.9-12.6-7.6-16.2c-1.4-1.9-2.8-2.9-4-3.7c-1.4-0.8-2.8-1.4-3.9-1.2c-1.9,0.4-3.4,3.2-2.9,9.2c0.2,3,1.1,7.3,2.6,10.2
			C7.9,45.7,9,46.1,9.1,44c0-0.3-0.1-1-0.3-1.4c-2.2-6.1-1.6-10.7-0.2-11.4c0.8-0.4,1.9,0,3,0.7c1,0.6,2.1,1.4,3.3,2.9
			c3.9,4.8,7.5,15.9,10.7,24.8c1.8,5.1,3.8,10.3,5.9,14.4C32.2,75.3,32.4,73.7,31.7,72.3L31.7,72.3z"/>
	</g>
</g>
<g>
	<path class="st0" d="M45,70.2c2.4-6.7,4.9-13.5,7.3-20.2c2.9-8.2,5.9-16.4,9.6-23.4s8.3-12.8,12.8-14.2c2.8-0.9,5.7,0.1,7.1,3.9
		c1.4,3.9,0.8,11.1-1.7,14.8c-1.3-2.2,1.2-7.9,0.6-11.1c-0.2-0.9-0.6-1.4-1-1.9c-2.8-3.1-7-1.7-10.6,2.1s-6.7,9.7-9.4,15.8
		C54.7,47.4,50.4,59.9,47,73"/>
	<g>
		<path class="st0" d="M44.4,69.7c3-8.3,6-16.6,9-24.9c2.7-7.4,5.6-14.8,9.1-20.9c3-5.3,6.5-9.7,10.1-11.9C76,10,80,9.9,82.1,14.4
			c2,4.3,1.6,12.9-1.6,17.9c-0.3,0.4-0.7,0.4-0.9,0.1c-0.7-1.4-0.6-3.5-0.2-5.7c0.4-2.3,1.2-5.1,0.3-6.6c-2.1-3.6-6.1-2.3-9.1,0.3
			c-3.2,2.8-6.1,7.7-8.6,12.9c-2.7,5.6-5.3,11.7-7.6,18c-2.6,7.2-4.9,14.7-6.9,22.3c-0.5,1.8-1.6,0.8-1.2-1
			C50.1,58.2,55,44.2,60.9,32c2.6-5.4,5.5-10.5,8.9-13.7c3.2-3.1,6.9-4.3,9.7-2.2c1.4,1,2.4,2.8,2.1,6.2c-0.1,1.4-0.4,2.8-0.7,4.2
			c-0.2,1.2-0.5,2.7-0.1,3.5c-0.3,0-0.6,0.1-0.9,0.1c2.7-4.2,2.4-11.3,0.6-14.2c-2.2-3.5-5.9-2.7-9.1-0.3C64.3,21,59,33.9,54.5,46.1
			c-3,8.2-5.9,16.4-8.9,24.6C45,72.4,43.8,71.4,44.4,69.7L44.4,69.7z"/>
	</g>
</g>
<path class="st1" d="M104.7,119.6c-0.1,4.2-0.6,22-13.9,34.5c-3.9,3.7-9.9,9.3-17.7,9.4c-15.8,0.1-31.5-22.6-31.5-43.8
	c0-20.1,14.3-44,31.5-43.8c15,0.2,27.8,18.8,30.8,33.6C104.8,113.6,104.7,117.1,104.7,119.6z"/>
<path class="st0" d="M103.9,109.3c0.4,2.1,0.7,4.9,0.7,4.9c0.1,0.8,0.4,4.5,0,9.1c-0.2,2.7-0.8,9.1-3.8,16.1
	c-1.5,3.6-4.7,11-10,14.7c-11.8,8.2-28.1,0.3-29.4-0.4c-2.6-1.3-10.8-5.6-15.2-14.8c-6.7-14.4-1.8-36.8,15.2-44.6
	C81.1,85.2,102.6,102.6,103.9,109.3z"/>
<circle class="st0" cx="46.3" cy="83.4" r="24.8"/>
<path class="st0" d="M92.2,135.4"/>
<path class="st0" d="M120.3,139.1"/>
</svg>
