<svg id="Layer_1" data-name="Layer 1" xmlns="http://www.w3.org/2000/svg" viewBox="0 0 86 119.61"><defs><style>.cls-1{fill:#f7f7f7;}.cls-2{stroke:#000;stroke-miterlimit:10;stroke-width:0.48px;}.cls-3{fill:none;}</style></defs><title>ant3run</title><path class="cls-1" d="M33.2,81.74c-3.87-9.52-14.37-19.45-16.56-28.39a14.5,14.5,0,0,1,0-6.73c.5-2.22,1.41-4.27,3.53-4.68s5.63,1.48,7.75,4.68c1.48.41,1.48-1.65.35-3.45a10.61,10.61,0,0,0-4.51-3.78c-3-1.31-5.36-1-7,.33s-2.39,3.53-3,5.91a13.83,13.83,0,0,0-.14,6.16c1,4.51,4.51,9.76,7.83,14.52C24.68,70.91,27.85,75.42,31,80" transform="translate(-12.66 -21.6)"/><path class="cls-1" d="M32.57,81.74c-3-7.38-9.37-14.2-13.53-21.42-2.19-3.77-3.52-7.38-3.52-10.5-.07-3.53.77-7.06,3-8.37s6.83.41,10,5l-.84-.74c.56.17.63-.49.56-1a5.31,5.31,0,0,0-1.48-2.55,9,9,0,0,0-5.07-2.54c-3.32-.49-5.22,1.48-6.2,4.1A13.85,13.85,0,0,0,15,53.51c1.13,3.61,3.67,7.55,6.13,11.16,3.46,5.09,7.05,10.18,10.57,15.27.85,1.15-.28,1.56-1.13.41-3.73-5.5-7.61-10.92-11.27-16.42-2.89-4.35-5.71-9.11-6.41-13.21A15.46,15.46,0,0,1,13.05,45a14.62,14.62,0,0,1,2-5c1.69-2.22,4.79-3.28,8.88-1.23a11.74,11.74,0,0,1,5.57,5.66c.77,2.05.28,3.45-1.34,3a2,2,0,0,1-.85-.74c-2.89-4.19-6.76-4.6-8.24-3.12a7.39,7.39,0,0,0-1.69,3.69A14.31,14.31,0,0,0,17.14,52c.7,6,6.2,12.89,10.5,19a58.34,58.34,0,0,1,6.27,10.75c.49,1.32-.85,1.15-1.34,0Z" transform="translate(-12.66 -21.6)"/><path class="cls-1" d="M41.53,88.07c1.4-7,2.7-14,4-21,1.6-8.5,3.3-17,3.9-24.8s.1-14.7-2.3-17.9c-1.5-1.9-3.8-2.2-6.5.6s-5.5,9.5-5.4,13.9c1.8-1.4,2.6-7.5,4.5-10.1a4.36,4.36,0,0,1,1.5-1.3c3.3-1.6,5.4,1.3,6.1,6.1s.2,11.4-.7,17.9a300.59,300.59,0,0,1-7.7,38.2" transform="translate(-12.66 -21.6)"/><path class="cls-1" d="M42.13,87.87c1.7-8.6,3.4-17.3,5-25.8a173.49,173.49,0,0,0,3.2-22.3c.3-5.9,0-11.2-1.5-14.7-1.4-3.3-4-4.9-7.4-1.8s-6.8,10.8-6.8,16.6c0,.5.3.7.5.4,1.1-1,1.9-2.9,2.7-5s1.5-5.1,2.7-6c3-2.3,5.1.5,5.9,4,.9,3.8.7,9.4.1,15-.7,6.1-1.7,12.6-2.9,19.1-1.4,7.4-3.2,15.1-5.2,22.7-.5,1.8.8,1.4,1.2-.4a274.69,274.69,0,0,0,8.2-42c.6-5.9.9-11.6.1-15.8s-2.7-6.7-5.5-5.9c-1.4.4-2.9,1.5-4.2,4.7-.5,1.3-.9,2.7-1.4,4-.4,1.1-.8,2.6-1.5,3.2a2.18,2.18,0,0,1,.5.4c.1-4.8,3.4-11.1,5.9-12.9,3-2.3,5.2,0,6.2,3.5,2.4,7.8.2,21.4-2.2,34.1-1.6,8.5-3.3,17-4.9,25.6-.2,1.4,1,1,1.3-.7Z" transform="translate(-12.66 -21.6)"/><path class="cls-2" d="M71.28,91.28c-.06,2.38-.34,12.43-7.85,19.48-2.2,2.09-5.59,5.25-10,5.31-8.92.06-17.79-12.76-17.79-24.73,0-11.35,8.08-24.84,17.79-24.73,8.47.12,15.69,10.62,17.39,19A25.22,25.22,0,0,1,71.28,91.28Z" transform="translate(-12.66 -21.6)"/><path class="cls-3" d="M97.84,97.56c.36,1.89.63,4.41.63,4.41a44.92,44.92,0,0,1,0,8.19,45.31,45.31,0,0,1-3.42,14.49c-1.35,3.24-4.23,9.91-9,13.24-10.62,7.38-25.29.27-26.46-.36-2.34-1.17-9.72-5.05-13.68-13.33-6-13-1.62-33.12,13.68-40.14C77.32,75.87,96.67,91.53,97.84,97.56Z" transform="translate(-12.66 -21.6)"/><circle class="cls-1" cx="23.35" cy="52.28" r="17.46"/><path class="cls-1" d="M92.2,135.4" transform="translate(-12.66 -21.6)"/><path class="cls-1" d="M120.3,139.1" transform="translate(-12.66 -21.6)"/></svg>