<?xml version="1.0" encoding="utf-8"?>
<!-- Generator: Adobe Illustrator 24.0.3, SVG Export Plug-In . SVG Version: 6.00 Build 0)  -->
<svg version="1.1" id="Layer_1" xmlns="http://www.w3.org/2000/svg" xmlns:xlink="http://www.w3.org/1999/xlink" x="0px" y="0px"
	 viewBox="0 0 141.7 198.4" style="enable-background:new 0 0 141.7 198.4;" xml:space="preserve">
<style type="text/css">
	.st0{fill:#333333;}
	.st1{stroke:#000000;stroke-width:0.8479;stroke-miterlimit:10;}
</style>
<g>
	<path class="st0" d="M32.7,71.7C28.2,60.3,16.6,45,13.9,35c-0.8-2.9-0.7-5-0.3-6.6c0.4-1.9,1.3-3.5,3.4-2.8s6,4.4,8.4,8.7
		c1.6,1.2,1.5-0.9,0.2-3.2s-3.3-4.6-4.9-6.1c-3.1-2.8-5.7-3.7-7.3-3.3c-1.6,0.5-2.3,2.2-2.7,4.3c-0.3,1.6-0.5,3.4,0.2,6.1
		c1.3,5,5.2,12,8.9,18.5c3.5,6.2,7.1,12.3,10.6,18.5"/>
	<g>
		<path class="st0" d="M32,71.3c-3.6-8.9-10.6-19-15.3-28.3c-2.5-4.9-4-9.1-4.3-12.2c-0.2-3.5,0.4-6.6,2.7-6.7
			c2.3-0.1,7.2,4,10.7,10.2c-0.3-0.4-0.6-0.7-0.9-1.1c0.6,0.4,0.7-0.1,0.6-0.7c-0.2-0.9-0.8-2.1-1.7-3.3C22.1,26.7,20,25,18.4,24
			c-3.5-2.2-5.4-1.2-6.3,0.8c-0.9,2-1.6,4.7,0,9.4c1.4,4.2,4.3,9.4,7,14.2C23,55.3,27,62.2,31,69.1c0.9,1.6-0.2,1.4-1.1-0.2
			c-4.2-7.4-8.6-14.8-12.7-22.1c-3.3-5.8-6.4-11.9-7.4-16.4c-0.5-2.4-0.4-4.1,0-5.5c0.3-1.7,0.9-3.1,1.8-3.9
			c1.6-1.3,4.8-0.7,9.2,3.4c2.2,2,5,5.5,6.1,8.6c0.9,2.4,0.5,3.6-1.3,2.3c-0.3-0.2-0.7-0.7-0.9-1.1c-3.2-5.6-7.3-8-8.8-7.3
			c-0.9,0.4-1.3,1.5-1.6,2.8c-0.3,1.2-0.4,2.6-0.1,4.5c1,6.2,7.2,16,12,24.3c2.7,4.7,5.4,9.5,7.1,13.9C34,73.6,32.6,72.8,32,71.3
			L32,71.3z"/>
	</g>
</g>
<g>
	<path class="st0" d="M50.8,72.9c1.5-6.9,3-13.9,4.6-20.8c1.8-8.4,3.7-16.9,4.7-24.5s0.9-14.5-0.9-17.4c-1.1-1.8-3-2-5.4,1
		s-5.1,9.7-5.3,13.9c1.6-1.5,2.6-7.5,4.3-10.2c0.5-0.7,0.9-1.1,1.3-1.3c2.8-1.8,4.4,1,4.7,5.7c0.3,4.7-0.5,11.1-1.6,17.6
		c-2,12-4.9,24.9-8.6,37.9"/>
	<g>
		<path class="st0" d="M51.3,72.7c1.9-8.5,3.8-17.1,5.6-25.6c1.6-7.6,3.2-15.3,3.9-22.1c0.6-5.8,0.6-11-0.4-14.3c-1-3.1-3-4.6-6-1.3
			c-2.9,3.1-6.2,11-6.6,16.6c0,0.5,0.2,0.6,0.4,0.4c1-1,1.8-2.9,2.5-5c0.7-2.2,1.5-5.1,2.6-6.1c2.6-2.4,4.2,0.2,4.7,3.6
			c0.5,3.7,0,9.2-0.8,14.7c-0.9,6.1-2.1,12.5-3.5,18.9C52.1,59.8,50.2,67.4,48,75c-0.5,1.8,0.5,1.3,1-0.5c4-14.3,7.3-28.6,9.2-41.7
			c0.9-5.8,1.4-11.4,1-15.5c-0.4-4-1.8-6.4-4.2-5.5c-1.2,0.4-2.5,1.6-3.7,4.8c-0.5,1.3-0.9,2.7-1.4,4c-0.4,1.1-0.8,2.6-1.4,3.2
			c0.1,0.1,0.3,0.3,0.4,0.4c0.3-4.7,3.4-11.1,5.6-13c2.7-2.4,4.3-0.3,4.9,3c1.5,7.5-1,21-3.8,33.5c-1.8,8.4-3.7,16.9-5.6,25.4
			C49.9,74.8,50.9,74.4,51.3,72.7L51.3,72.7z"/>
	</g>
</g>
<path class="st1" d="M104.7,119.6c-0.1,4.2-0.6,22-13.9,34.5c-3.9,3.7-9.9,9.3-17.7,9.4c-15.8,0.1-31.5-22.6-31.5-43.8
	c0-20.1,14.3-44,31.5-43.8c15,0.2,27.8,18.8,30.8,33.6C104.8,113.6,104.7,117.1,104.7,119.6z"/>
<path class="st0" d="M103.9,109.3c0.4,2.1,0.7,4.9,0.7,4.9c0.1,0.8,0.4,4.5,0,9.1c-0.2,2.7-0.8,9.1-3.8,16.1
	c-1.5,3.6-4.7,11-10,14.7c-11.8,8.2-28.1,0.3-29.4-0.4c-2.6-1.3-10.8-5.6-15.2-14.8c-6.7-14.4-1.8-36.8,15.2-44.6
	C81.1,85.2,102.6,102.6,103.9,109.3z"/>
<circle class="st0" cx="46.3" cy="83.4" r="24.8"/>
<path class="st0" d="M92.2,135.4"/>
<path class="st0" d="M120.3,139.1"/>
</svg>
