<?xml version="1.0" encoding="utf-8"?>
<!-- Generator: Adobe Illustrator 24.0.3, SVG Export Plug-In . SVG Version: 6.00 Build 0)  -->
<svg version="1.1" id="Layer_1" xmlns="http://www.w3.org/2000/svg" xmlns:xlink="http://www.w3.org/1999/xlink" x="0px" y="0px"
	 viewBox="0 0 226.8 141.7" style="enable-background:new 0 0 226.8 141.7;" xml:space="preserve">
<style type="text/css">
	.st0{fill:#333333;}
	.st1{stroke:#FFFFFF;stroke-width:0.8479;stroke-miterlimit:10;}
	.st2{fill:#FFFFFF;stroke:#FFFFFF;stroke-width:0.8479;stroke-miterlimit:10;}
</style>
<ellipse class="st0" cx="267.3" cy="-39.3" rx="45.9" ry="33.3"/>
<g>
	<path class="st0" d="M142.7-55.4c-0.1,2.7-0.1,5.4-0.2,8.1c0,0.4,0,0.8-0.2,1.1c-0.2,0.3-0.6,0.4-1,0.6c-1.6,0.5-3.2,1-4.8,1.5
		c-0.6,0.2-1.2,0.4-1.6,0.9c-0.4,0.5-0.4,1.3,0.1,1.6c0.2,0.1,0.4,0.2,0.7,0.2c2.4,0.3,4.8,0.7,7.2,1c0.5,0.1,0.9,0.1,1.4-0.1
		c0.7-0.3,1-1.1,1.3-1.8c1.7-5.5,2.2-11.4,1.3-17.1"/>
	<g>
		<path class="st0" d="M141.6-55.4c-0.1,1.9-0.1,3.8-0.1,5.7c0,0.4,0,0.9,0,1.3c0,0.3,0.1,1.1,0,1.4c-0.1,0.3-0.6,0.3-0.9,0.4
			c-0.5,0.2-1,0.3-1.5,0.5c-1.4,0.4-3.2,0.7-4.4,1.7c-1,0.8-1.4,2.5-0.4,3.4c0.5,0.5,1.2,0.6,1.9,0.7c1,0.1,1.9,0.3,2.9,0.4
			c0.9,0.1,1.8,0.2,2.7,0.4c0.8,0.1,1.6,0.3,2.5,0.2c1.5-0.3,2.2-1.7,2.6-3c0.5-1.7,0.9-3.4,1.2-5.2c0.6-4.1,0.6-8.2,0-12.2
			c-0.2-1.4-2.4-0.8-2.2,0.6c0.4,3,0.5,6,0.2,9.1c-0.2,1.6-0.4,3.1-0.7,4.6c-0.2,0.7-0.3,1.4-0.5,2.1c-0.1,0.5-0.3,1.5-0.7,1.8
			c-0.4,0.3-1.2,0.1-1.7,0c-0.8-0.1-1.6-0.2-2.3-0.3s-1.6-0.2-2.3-0.3c-0.4-0.1-0.7-0.1-1.1-0.2c-0.3,0-0.7-0.2-0.8,0.1
			c0-0.4,0.8-0.5,1.1-0.6c0.8-0.3,1.6-0.5,2.4-0.8c1.2-0.4,2.8-0.6,3.8-1.5c1.1-1.1,0.7-3.2,0.7-4.5c0.1-1.8,0.1-3.7,0.1-5.5
			C143.9-56.9,141.6-56.9,141.6-55.4L141.6-55.4z"/>
	</g>
</g>
<g>
	<path class="st0" d="M191.6-28.1c-0.9,5.7-2,11.4-3.3,17.1c-0.1,0.3-0.1,0.6-0.4,0.8c-0.3,0.2-0.7,0.3-1,0.3
		c-1.5,0.1-3,0.2-4.5,0.3c-0.3,0-0.7,0-1-0.1c-0.7-0.4-0.4-1.6,0.2-2.1c0.6-0.5,1.5-0.8,2-1.5c0.3-0.4,0.5-1,0.6-1.5
		c1.1-5,2.3-10.1,3.4-15.1"/>
	<g>
		<path class="st0" d="M190.5-28.4c-0.6,3.9-1.3,7.8-2.1,11.7c-0.2,1-0.4,2.1-0.7,3.1c-0.1,0.4-0.2,0.8-0.3,1.2
			c-0.1,0.3-0.1,1.3-0.4,1.4c-0.1,0.1-0.8,0.1-1,0.1c-0.4,0-0.9,0.1-1.3,0.1c-0.4,0-0.9,0.1-1.3,0.1c-0.2,0-1.3,0.2-1.4,0.1
			c0.2,0.2,0,0.1,0.2-0.2c0.2-0.2,0.4-0.3,0.6-0.4c0.6-0.4,1.3-0.8,1.7-1.4c0.4-0.7,0.6-1.4,0.8-2.2c0.2-1,0.5-2.1,0.7-3.1
			c0.9-3.9,1.8-7.7,2.6-11.6c0.3-1.4-1.8-2-2.2-0.6c-0.8,3.5-1.6,7.1-2.4,10.6c-0.2,0.9-0.4,1.8-0.6,2.7c-0.2,0.8-0.3,1.8-0.6,2.6
			c-0.3,0.6-0.9,0.8-1.4,1.2c-0.6,0.4-1,0.8-1.3,1.4c-0.5,1-0.4,2.4,0.7,3c0.7,0.4,1.5,0.3,2.3,0.2c0.9-0.1,1.8-0.1,2.6-0.2
			c1.5-0.1,2.9-0.1,3.5-1.7c0.5-1.6,0.8-3.4,1.2-5.1c0.9-4.1,1.6-8.2,2.2-12.3C192.9-29.2,190.7-29.8,190.5-28.4L190.5-28.4z"/>
	</g>
</g>
<g>
	<path class="st0" d="M204.1-21.9c0,3.1,0,6.2,0,9.2c0,0.3,0,0.7-0.2,0.9c-0.2,0.3-0.5,0.5-0.9,0.6c-1.3,0.6-2.7,0.9-4.1,1.2
		c-0.8,0.1-1.7,0.2-2.4,0.6s-1.1,1.4-0.7,2.1c0.5,0.7,1.4,0.7,2.2,0.6c3.4-0.3,6.7-0.7,10.1-1.1c0.8-4.1,0.8-8.4-0.1-12.5"/>
	<g>
		<path class="st0" d="M203-21.9c0,2.5,0,5,0,7.4c0,0.6,0,1.2,0,1.8c0,0.2,0,0.3-0.1,0.4c-0.1,0.2-0.6,0.3-0.8,0.3
			c-1.1,0.4-2.3,0.7-3.4,0.9c-1,0.2-2.1,0.3-2.9,1c-0.8,0.6-1.3,1.7-1.1,2.7c0.5,2.4,3.4,1.9,5.1,1.7c2.8-0.3,5.6-0.6,8.4-0.9
			c0.5-0.1,1-0.3,1.1-0.8c0.9-4.3,0.8-8.8-0.1-13.1c-0.3-1.4-2.4-0.8-2.1,0.6c0.8,3.9,0.8,8,0.1,11.9c0.4-0.3,0.7-0.6,1.1-0.8
			c-2.9,0.3-5.7,0.6-8.6,0.9c-0.3,0-2.7,0.5-2.8,0c-0.2-0.9,2.4-1,2.8-1.1c1.4-0.2,2.7-0.6,4-1.2c1.3-0.6,1.6-1.6,1.6-3
			c0-2.9,0-5.9,0-8.8C205.2-23.3,203-23.3,203-21.9L203-21.9z"/>
	</g>
</g>
<g>
	<path class="st0" d="M245.5-12c-0.5,1.2-1,2.4-1.9,3.4s-2.1,1.7-3.5,1.6c-1.1-0.1-2.6-0.7-3.2,0.2c-0.2,0.3-0.2,0.6-0.3,0.9
		c-0.2,1-0.3,2-0.4,3c0,0.2-0.1,0.5,0.1,0.7c0.1,0.2,0.4,0.2,0.7,0.2c2.1,0.2,4.1,0.5,6.1,0.7c0.7,0.1,1.5,0.1,2.1-0.2
		c0.5-0.3,0.8-0.8,1.1-1.4c1-1.9,1.8-4,2.4-6.1"/>
	<g>
		<path class="st0" d="M244.5-12.6c-0.8,1.8-1.9,4.6-4.2,4.5c-1,0-2-0.5-3-0.2c-1.3,0.3-1.7,1.4-1.9,2.6c-0.1,0.6-0.2,1.2-0.3,1.8
			c-0.1,0.7-0.3,1.4,0,2.1c0.6,1.2,2.5,1.1,3.7,1.2c1.4,0.1,2.7,0.3,4.1,0.5c1.2,0.1,2.4,0.1,3.3-0.8s1.5-2.3,1.9-3.5
			c0.6-1.4,1.1-2.8,1.4-4.2c0.4-1.4-1.8-2-2.1-0.6c-0.5,2.1-1.3,4.1-2.3,6c-0.2,0.3-0.3,0.6-0.6,0.8c-0.3,0.2-0.8,0.1-1.1,0.1
			c-1.2-0.1-2.3-0.3-3.5-0.4c-0.6-0.1-1.1-0.1-1.7-0.2c-0.3,0-0.6-0.1-0.9-0.1c-0.1,0-0.4-0.1-0.4,0c0.1,0.1,0.1,0.2,0.2,0.3
			c0,0,0-0.1,0-0.1c0.1-0.1,0.1-0.6,0.1-0.8c0-0.3,0.1-0.5,0.1-0.8c0.1-0.5,0.1-1.2,0.3-1.6c0.1-0.1,0-0.1,0-0.1
			c0.1-0.1,0.3,0,0.4,0c0.4,0,0.8,0.1,1.1,0.2c1,0.2,1.9,0.1,2.8-0.2c2.3-0.9,3.4-3.1,4.3-5.3c0.2-0.6,0.2-1.2-0.4-1.5
			C245.6-13.2,244.8-13.1,244.5-12.6L244.5-12.6z"/>
	</g>
</g>
<g>
	<path class="st0" d="M268.7-6.5c-0.1,1.5-0.2,3-0.4,4.5c0,0.2,0,0.4-0.1,0.6C268-1.1,267.6-1,267.3-1c-2.2,0.4-4.5,0.7-6.7,1
		c-1,0.1-2,0.4-2.7,1.1c-0.7,0.7-0.6,2.2,0.4,2.5c0.3,0.1,0.6,0,0.9,0c4-0.5,8.1-0.9,12.1-1.4c0.3,0,0.7-0.1,1-0.3
		c0.7-0.4,0.6-1.4,0.5-2.2c-0.4-2.5-0.7-5.1-1.1-7.6"/>
	<g>
		<path class="st0" d="M267.6-6.5c-0.1,0.8-0.1,1.7-0.2,2.6c0,0.4-0.1,0.8-0.1,1.1c0,0.2-0.1,0.4-0.1,0.6c-0.1,0.3-0.1,0.4,0.1,0.2
			c0.1-0.1,0.1-0.1-0.1,0c-0.7,0-1.5,0.2-2.2,0.4c-0.9,0.1-1.8,0.3-2.8,0.4c-2.3,0.4-6.3,0.7-5.8,4c0.2,1.3,1.2,2.1,2.5,2.1
			c1.7-0.1,3.4-0.4,5.1-0.6c1.7-0.2,3.4-0.4,5.1-0.6c1.3-0.1,3.2,0,4.2-1.1c1.1-1.3,0.5-3.3,0.3-4.8c-0.3-1.9-0.6-3.9-0.8-5.8
			c-0.1-0.6-0.8-0.9-1.4-0.8c-0.6,0.2-0.9,0.8-0.8,1.4c0.2,1.5,0.4,2.9,0.6,4.4c0.1,0.7,0.2,1.5,0.3,2.2c0.1,0.5,0.3,1.2,0.2,1.8
			c-0.1,0.4-0.4,0.3-0.8,0.4c-0.8,0.1-1.5,0.2-2.3,0.3c-1.4,0.2-2.9,0.3-4.3,0.5s-2.9,0.3-4.3,0.5c-0.3,0-0.6,0.1-0.9,0.1
			c-0.2,0-0.3,0-0.3,0.1c-0.1-0.2-0.1-0.5,0-0.6c0.5-0.8,2.2-0.8,3-0.9c1.5-0.2,3-0.5,4.5-0.7c1.4-0.2,3-0.3,3.3-1.9
			c0.2-1.6,0.3-3.3,0.4-4.9C269.9-7.9,267.7-7.9,267.6-6.5L267.6-6.5z"/>
	</g>
</g>
<g>
	<path class="st0" d="M218.2-23.1c1,2.9,2,5.9,3,8.9c0.1,0.4,0.2,0.8,0.1,1.1c-0.1,0.3-0.5,0.6-0.8,0.8c-0.9,0.5-1.8,1.1-2.7,1.6
		c-1,0.6-2.1,1.2-2.6,2.3c-0.5,1.1-0.2,2.6,0.9,3c2.6-3.2,7-3.9,10.8-5.3c0.3-0.1,0.7-0.3,0.8-0.6c0.3-0.5,0.1-1-0.2-1.5
		c-2.2-4.4-5.8-8.2-6.9-13"/>
	<g>
		<path class="st0" d="M217.1-22.9c0.8,2.2,1.5,4.5,2.3,6.7c0.2,0.6,0.4,1.2,0.6,1.7c0.2,0.5,0.3,0.7-0.1,1c-0.8,0.7-2.1,1.2-3,1.8
			c-1.4,0.8-2.8,1.9-3.1,3.5c-0.3,1.6,0.4,3.1,1.9,3.7c0.3,0.1,0.8,0,1.1-0.3c1.6-1.9,3.9-2.8,6.2-3.6c1.2-0.4,2.4-0.8,3.6-1.2
			c1.1-0.4,2.2-0.8,2.3-2.1c0.1-1.2-0.8-2.5-1.4-3.6c-0.7-1.2-1.4-2.3-2.2-3.4c-1.5-2.4-2.9-4.8-3.6-7.5c-0.3-1.4-2.5-0.8-2.1,0.6
			c0.6,2.5,1.8,4.8,3.1,6.9c0.6,1.1,1.3,2.1,2,3.1c0.4,0.6,0.7,1.2,1.1,1.7c0.3,0.5,0.8,1.1,0.9,1.6c0.1,0.3,0.2,0.1-0.1,0.3
			c-0.2,0.1-0.6,0.2-0.9,0.3c-0.5,0.2-1.1,0.4-1.6,0.5c-1.1,0.4-2.2,0.7-3.3,1.1c-2.1,0.8-4.1,1.9-5.6,3.6c0.4-0.1,0.7-0.2,1.1-0.3
			c-0.4-0.2-0.4-1-0.2-1.3c0.3-0.7,1.1-1.2,1.7-1.6c0.7-0.4,1.5-0.9,2.2-1.3c0.7-0.4,1.6-0.8,2.1-1.5c0.9-1.4-0.3-3.5-0.8-4.9
			c-0.7-2.1-1.4-4.1-2.1-6.2C218.8-24.8,216.6-24.2,217.1-22.9L217.1-22.9z"/>
	</g>
</g>
<g>
	<path class="st0" d="M81,36.8c-6.6-3.9-8.4-13.4-15.7-15.8c-2.1-0.7-4.5-0.6-6.7-0.4c-2.6,0.3-5.4,1-7.4,2.7
		c-2,1.8-2.9,4.9-1.3,6.9c-0.7,1.3-2.8,1.2-3.7,0.1c-0.9-1.1-0.8-2.7-0.3-4.1c1-2.6,3.2-4.6,5.7-5.9c2.5-1.3,5.3-1.8,8.2-2.2
		c2.1-0.2,4.3-0.3,6.3,0.3c3.8,1.1,6.3,4.4,8.5,7.5c2.1,3,4.3,5.9,6.4,8.9"/>
	<g>
		<path class="st0" d="M81.4,36.2c-5-3-7-8.8-11-12.8c-2.1-2.1-4.7-3.4-7.8-3.6c-3.5-0.2-7.6,0.3-10.7,2.1c-3,1.8-4.8,5.9-2.7,8.8
			c0-0.2-0.1-0.5-0.1-0.7c-0.3,0.5-1,0.5-1.5,0.4c-0.8-0.2-1.2-0.7-1.4-1.4c-0.4-1.5,0.4-3.2,1.3-4.5c2.1-2.8,5.5-4.4,8.9-5.1
			c3.3-0.7,7.1-1.2,10.2,0.1c2.8,1.2,4.7,3.6,6.4,5.9c2.4,3.3,4.8,6.6,7.2,9.9c0.6,0.8,1.8-0.1,1.2-0.9c-2.6-3.5-5-7.1-7.7-10.6
			c-2.1-2.7-4.7-5.4-8.3-6.2c-1.9-0.4-4-0.3-5.9-0.1c-2.2,0.2-4.5,0.7-6.6,1.4c-3.5,1.3-6.9,3.9-8.1,7.5c-0.6,1.8-0.4,4.1,1.4,5.1
			c1.4,0.8,3.3,0.4,4.1-1c0.1-0.2,0.1-0.5-0.1-0.7c-1.9-2.7,0.6-6,3.3-7.2c1.6-0.7,3.3-1,5-1.2c1.6-0.2,3.3-0.3,4.9,0
			c5.4,0.9,8.1,6.1,10.9,10c1.6,2.3,3.4,4.5,5.9,6C81.3,37.9,82.3,36.7,81.4,36.2L81.4,36.2z"/>
	</g>
</g>
<g>
	<path class="st0" d="M93.1,41c0.9-4.2,1.9-8.4,2.8-12.6c1.1-5.1,2.3-10.2,4.2-14.7s4.5-8.3,7.7-9.7c2-0.8,4.2-0.5,5.8,1.6
		c1.6,2.1,2.1,6.4,0.7,8.9c-1.3-1.2-0.1-4.7-1-6.6c-0.2-0.5-0.6-0.8-1-1c-2.5-1.6-5.4-0.3-7.6,2.3c-2.2,2.6-3.7,6.4-5,10.3
		c-2.4,7.2-4,15-4.8,23"/>
	<g>
		<path class="st0" d="M92.6,40.8c1.2-5.2,2.3-10.4,3.5-15.5c1.1-4.6,2.3-9.3,4.1-13.2c1.6-3.4,3.6-6.3,6-8c2.3-1.6,5.2-2,7.4,0.4
			c2.1,2.3,2.9,7.4,1.2,10.7c-0.1,0.3-0.5,0.3-0.6,0.1c-0.7-0.8-0.9-2-0.9-3.3c0-1.4,0.2-3.1-0.6-3.9c-2-1.9-4.9-0.7-6.8,1.1
			c-2.1,2-3.6,5.2-4.8,8.5c-1.3,3.6-2.4,7.4-3.3,11.4c-1,4.5-1.8,9.1-2.3,13.8c-0.1,1.1-1.1,0.6-1-0.5c0.9-8.8,2.8-17.6,5.6-25.3
			c1.2-3.4,2.8-6.7,4.8-8.9c2-2.2,4.6-3.3,6.9-2.3c1.2,0.5,2.2,1.4,2.4,3.4c0.1,0.8,0,1.7,0,2.5c0,0.7,0,1.6,0.4,2.1
			c-0.2,0-0.4,0.1-0.6,0.1c1.5-2.7,0.3-6.9-1.4-8.4c-2.1-1.9-4.8-1-6.8,0.8c-4.6,3.9-6.9,12.1-8.7,19.7c-1.2,5.1-2.3,10.3-3.4,15.4
			C93.4,42.3,92.4,41.8,92.6,40.8L92.6,40.8z"/>
	</g>
</g>
<path class="st1" d="M154.4,87.2c-0.1,4.2-0.6,22-13.9,34.5c-3.9,3.7-9.9,9.3-17.7,9.4c-15.8,0.1-31.5-22.6-31.5-43.8
	c0-20.1,14.3-44,31.5-43.8c15,0.2,27.8,18.8,30.8,33.6C154.5,81.2,154.4,84.7,154.4,87.2z"/>
<path class="st0" d="M153.6,76.9c0.4,2.1,0.7,4.9,0.7,4.9c0.1,0.8,0.4,4.5,0,9.1c-0.2,2.7-0.8,9.1-3.8,16.1c-1.5,3.6-4.7,11-10,14.7
	c-11.8,8.2-28.1,0.3-29.4-0.4c-2.6-1.3-10.8-5.6-15.2-14.8c-6.7-14.4-1.8-36.8,15.2-44.6C130.8,52.8,152.3,70.2,153.6,76.9z"/>
<circle class="st0" cx="96" cy="51.1" r="24.8"/>
<path class="st0" d="M141.9,103"/>
<path class="st0" d="M187.2,100.1"/>
<path class="st0" d="M178.1,72.5"/>
<path class="st0" d="M170,106.7"/>
<path class="st2" d="M199.6,81.8"/>
</svg>
