<svg id="Layer_1" data-name="Layer 1" xmlns="http://www.w3.org/2000/svg" width="3.17cm" height="4.69cm" viewBox="0 0 89.8 132.99"><defs><style>.cls-1,.cls-3{fill:#f7f7f7;}.cls-2{fill:#fff;}.cls-2,.cls-3,.cls-5{stroke:#f7f7f7;stroke-miterlimit:10;}.cls-2,.cls-5{stroke-width:1.74px;}.cls-4{opacity:0.11;}.cls-5{fill:none;}</style></defs><title>lamp-off</title><path class="cls-1" d="M27.11,26.52c.49-9,.9-18.09-.42-27.08-.27-1.91-3.17-1.1-2.89.79,1.27,8.71.78,17.55.31,26.29-.11,1.93,2.89,1.92,3,0Z" transform="translate(-10.35 3.19)"/><path class="cls-2" d="M93.92,62.17a225.4,225.4,0,0,0-14.77-30c-.87-1.48-.8-1.33-1.08-1.84q-1-1.92-1.83-3.81" transform="translate(-10.35 3.19)"/><path class="cls-1" d="M32.31,28.14q15.86-.42,31.72-.26c5.28.05,10.57.19,15.85.31a2.64,2.64,0,0,0,2.37-.76c.75-1,.41-2.41.35-3.54L82.13,16l-1-17.75c-.12-1.92-3.12-1.93-3,0L79,13l.44,7.4.21,3.45a10.31,10.31,0,0,0,.11,2l.33-.33q.66-.41.09-.33c-.26-.16-.91,0-1.24,0q-14.86-.4-29.73-.31-8.43.06-16.85.29c-1.93.05-1.94,3.05,0,3Z" transform="translate(-10.35 3.19)"/><path class="cls-1" d="M26.05,28.33c2.09-.07,4.17-.14,6.26-.19a1.5,1.5,0,0,0,0-3c-2.09.05-4.17.12-6.26.19a1.5,1.5,0,1,0,0,3Z" transform="translate(-10.35 3.19)"/><path class="cls-2" d="M18.89,59.51" transform="translate(-10.35 3.19)"/><path class="cls-2" d="M18.33,60.37" transform="translate(-10.35 3.19)"/><path class="cls-2" d="M16.36,63.71" transform="translate(-10.35 3.19)"/><path class="cls-2" d="M16.23,64" transform="translate(-10.35 3.19)"/><path class="cls-2" d="M16.59,62.17a225.4,225.4,0,0,1,14.77-30c.87-1.48.8-1.33,1.08-1.84q.69-1.26,1.26-2.52" transform="translate(-10.35 3.19)"/><path class="cls-2" d="M15.1,66c.6-1.59,1.11-2.89,1.49-3.83" transform="translate(-10.35 3.19)"/><path class="cls-2" d="M14,68.87c.38-1,.73-2,1.06-2.87" transform="translate(-10.35 3.19)"/><path class="cls-3" d="M34.89,80.43a167,167,0,0,1,4-21.05A164.41,164.41,0,0,1,47,35.53" transform="translate(-10.35 3.19)"/><path class="cls-2" d="M91.61,59.51" transform="translate(-10.35 3.19)"/><path class="cls-2" d="M92.18,60.37" transform="translate(-10.35 3.19)"/><path class="cls-2" d="M94.28,64" transform="translate(-10.35 3.19)"/><path class="cls-2" d="M95.41,66c-.6-1.59-1.11-2.89-1.49-3.83" transform="translate(-10.35 3.19)"/><path class="cls-2" d="M96.47,68.87c-.38-1-.73-2-1.06-2.87" transform="translate(-10.35 3.19)"/><path class="cls-3" d="M72.76,80.43a163.53,163.53,0,0,0-4-21.05,165.69,165.69,0,0,0-8.09-23.85" transform="translate(-10.35 3.19)"/><path class="cls-1" d="M33.38,79.67a5.3,5.3,0,0,1,3.36-.11A8.36,8.36,0,0,0,39,80.2a2.15,2.15,0,0,0,2.38-2.15c0-.52-.63-1-1.12-.65l-.89.63a.75.75,0,0,0-.15,1.17c.84.88,1.87,1.84,3.18,1.73a2.2,2.2,0,0,0,2.07-1.76l-1.37.17a3.91,3.91,0,0,0,4.64,1.48A1.81,1.81,0,0,0,49,79.43c.08-.66-.28-1.29-1-1.23a.77.77,0,0,0-.72.55C46.69,81,49,82.3,50.93,82c.91-.12,2.38-.34,3-1.17A1.28,1.28,0,0,0,53.4,79a.76.76,0,0,0-.9.12c-2.31,2.54,3.08,3.59,4.63,3.49,1.07-.06,2.62-.56,2.95-1.73a1.14,1.14,0,0,0-1.68-1.32.76.76,0,0,0-.15,1.18,4.74,4.74,0,0,0,5.1,1,2.06,2.06,0,0,0,1.4-1.51,1,1,0,0,0-1-1.26,1.38,1.38,0,0,0-1.23,1.34A1.92,1.92,0,0,0,63.88,82c1.68.74,4.17.83,4.44-1.48L67,81.1a2.61,2.61,0,0,0,3.45.42c.69-.49,1.77-2.3.49-2.79-1-.37-1.75.84-1.32,1.66.76,1.44,3.18.1,4.17-.24s.52-1.76-.4-1.44l-1.46.5-.62.21c-.39,0-.54.26-.46.72l-.73-.2.13.11-.2-.73c-.14,1.07-1.17,1.58-2,.71a.76.76,0,0,0-1.28.53c-.1.88-1.55.39-2,.23a14.36,14.36,0,0,0-1.82-.6,2.76,2.76,0,0,1-.74.28,3.22,3.22,0,0,1-2.93-.83l-.15,1.17a.65.65,0,0,0-1.07,0l-.46.17a4.14,4.14,0,0,1-1.49,0c-.18,0-2.86-.6-2.58-.9l-.91.11c-.55-.25-1.46.26-2,.3-.81.07-2.21-.24-1.9-1.41L48,79.7l-.6-.39a1.63,1.63,0,0,1-.53.21,2.43,2.43,0,0,1-1,0,2.34,2.34,0,0,1-1.53-1c-.33-.47-1.26-.52-1.37.18-.28,1.67-2.23-.08-2.75-.63l-.15,1.18.88-.63-1.13-.64c0,.51-.9.67-1.25.59s-.49-.17-.73-.25a8.75,8.75,0,0,0-1.66-.48,6.69,6.69,0,0,0-3.23.31c-.91.31-.52,1.76.4,1.45Z" transform="translate(-10.35 3.19)"/><path class="cls-1" d="M48.31,36.35l1.5-9.12a1.55,1.55,0,0,0-1.05-1.85,1.53,1.53,0,0,0-1.85,1.05l-1.49,9.13a1.5,1.5,0,1,0,2.89.79Z" transform="translate(-10.35 3.19)"/><path class="cls-1" d="M62.47,37.24a12.87,12.87,0,0,1-1.09-4.94c-.13-1.94-.18-3.88-.5-5.8A1.51,1.51,0,0,0,59,25.45a1.55,1.55,0,0,0-1,1.85c.29,1.76.28,3.72.43,5.57a15.72,15.72,0,0,0,1.46,5.88,1.5,1.5,0,1,0,2.59-1.51Z" transform="translate(-10.35 3.19)"/><path class="cls-1" d="M45.31,35.8a1.22,1.22,0,0,1,0,.27l0-.4a.9.9,0,0,1-.08.28l.15-.36a.89.89,0,0,1-.14.25l.24-.31-.08.09a1.24,1.24,0,0,0-.31.48,1.36,1.36,0,0,0,0,1.16,1.24,1.24,0,0,0,.31.48l.31.24a1.5,1.5,0,0,0,.75.2l.4,0a1.39,1.39,0,0,0,.66-.39,3.79,3.79,0,0,0,.31-.39.36.36,0,0,0,.07-.1l.06-.11a3.71,3.71,0,0,0,.19-.46,2.78,2.78,0,0,0,.11-.63,1,1,0,0,0,0-.25,1.15,1.15,0,0,0-.13-.58,1,1,0,0,0-.31-.48,1.14,1.14,0,0,0-.48-.31,1.06,1.06,0,0,0-.58-.13l-.4.05a1.49,1.49,0,0,0-.66.39l-.24.3a1.54,1.54,0,0,0-.2.76Z" transform="translate(-10.35 3.19)"/><g class="cls-4"><path class="cls-1" d="M67.9,32.26C72.09,43.7,78.79,54.2,81.57,66.14a37.41,37.41,0,0,1,0,18.06c-.77,3-1.82,5.82-2.87,8.68s-2.12,5.84-3.37,8.68a53.07,53.07,0,0,1-4.7,8.64,100.38,100.38,0,0,1-6.35,8c-1.25,1.46.86,3.59,2.12,2.12,4-4.75,7.86-9.54,10.57-15.18a131.51,131.51,0,0,0,6.78-17.7,40.41,40.41,0,0,0,1.44-18.24,71.3,71.3,0,0,0-5.75-18.11c-2.88-6.56-6.2-12.92-8.67-19.66-.66-1.79-3.56-1-2.89.8Z" transform="translate(-10.35 3.19)"/></g><path class="cls-5" d="M15.57,65.28" transform="translate(-10.35 3.19)"/><path class="cls-5" d="M15.21,66.05" transform="translate(-10.35 3.19)"/><path class="cls-5" d="M55.67,128.93a44.46,44.46,0,0,1-40.93-61.8" transform="translate(-10.35 3.19)"/><path class="cls-5" d="M94.94,65.28" transform="translate(-10.35 3.19)"/><path class="cls-5" d="M95.3,66.05" transform="translate(-10.35 3.19)"/><path class="cls-5" d="M54.84,128.93A44.48,44.48,0,0,0,96.05,67.79" transform="translate(-10.35 3.19)"/></svg>