<svg id="Layer_1" data-name="Layer 1" xmlns="http://www.w3.org/2000/svg" width="3.18cm" height="4.95cm" viewBox="0 0 90.05 140.33"><defs><style>.cls-1{fill:#fff;}.cls-1,.cls-3,.cls-5{stroke:#f7f7f7;stroke-miterlimit:10;}.cls-1,.cls-5{stroke-width:1.71px;}.cls-2,.cls-3{fill:#f7f7f7;}.cls-3{stroke-width:0.99px;}.cls-4{opacity:0.11;}.cls-5{fill:none;}.cls-6{opacity:0.09;}.cls-7{fill:#efff1f;}</style></defs><title>lamp-on</title><path class="cls-1" d="M16.84,68.36A222.38,222.38,0,0,0,31.43,98c.85,1.47.79,1.32,1.06,1.82.69,1.26,1.29,2.52,1.82,3.76" transform="translate(-10.11 -1.57)"/><path class="cls-2" d="M77.7,102q-13,.31-26,.27-6.55,0-13.11-.14c-2.14,0-4.28-.08-6.42-.14-1.64,0-4-.39-4.22,1.82-.41,3.59-.84,7.22-1,10.83-.18,5.11,0,11,2.86,15.5,2.06,3.22,5.42,5.43,8.86,7a44.44,44.44,0,0,0,13.57,3.4c9.33.94,20-.33,27.81-5.94a20.41,20.41,0,0,0,8.48-13.14A30.87,30.87,0,0,0,86.45,105c-.28-.72-.59-1.43-.91-2.14-.75-1.66-3.21-.22-2.45,1.44a32.19,32.19,0,0,1,3,12.55,18.05,18.05,0,0,1-6,14.12c-6.54,5.8-16.3,7.29-24.75,6.94a45.45,45.45,0,0,1-12.92-2.34,22,22,0,0,1-9-5.31c-3-3.23-3.57-8-3.68-12.27a86.86,86.86,0,0,1,.87-12.59,5.87,5.87,0,0,0,.09-.82,1,1,0,0,0,0-.24c-.12-.47-.6.48-.59.5a22.58,22.58,0,0,0,3.46.08l3,.07q6.91.14,13.84.17,13.6.08,27.21-.26c1.82,0,1.83-2.89,0-2.85Z" transform="translate(-10.11 -1.57)"/><path class="cls-2" d="M83.88,101.79,77.7,102a1.48,1.48,0,1,0,0,3c2.06,0,4.12-.12,6.18-.19a1.48,1.48,0,1,0,0-3Z" transform="translate(-10.11 -1.57)"/><path class="cls-1" d="M91,71" transform="translate(-10.11 -1.57)"/><path class="cls-1" d="M91.51,70.14" transform="translate(-10.11 -1.57)"/><path class="cls-1" d="M93.44,66.84" transform="translate(-10.11 -1.57)"/><path class="cls-1" d="M93.58,66.58" transform="translate(-10.11 -1.57)"/><path class="cls-1" d="M93.22,68.36A223.42,223.42,0,0,1,78.64,98c-.86,1.47-.79,1.32-1.07,1.82-.45.83-.87,1.66-1.25,2.49" transform="translate(-10.11 -1.57)"/><path class="cls-1" d="M94.69,64.58c-.59,1.57-1.1,2.85-1.47,3.78" transform="translate(-10.11 -1.57)"/><path class="cls-1" d="M95.74,61.74c-.37,1-.72,2-1,2.84" transform="translate(-10.11 -1.57)"/><path class="cls-3" d="M75.14,50.32a162.57,162.57,0,0,1-3.92,20.8,164.1,164.1,0,0,1-8,23.56" transform="translate(-10.11 -1.57)"/><path class="cls-1" d="M19.12,71" transform="translate(-10.11 -1.57)"/><path class="cls-1" d="M18.56,70.14" transform="translate(-10.11 -1.57)"/><path class="cls-1" d="M16.48,66.58" transform="translate(-10.11 -1.57)"/><path class="cls-1" d="M15.37,64.58c.59,1.57,1.1,2.85,1.47,3.78" transform="translate(-10.11 -1.57)"/><path class="cls-1" d="M14.32,61.74c.37,1,.73,2,1,2.84" transform="translate(-10.11 -1.57)"/><path class="cls-3" d="M37.74,50.32a164.48,164.48,0,0,0,3.93,20.8,162.87,162.87,0,0,0,8,23.56" transform="translate(-10.11 -1.57)"/><path class="cls-2" d="M76.64,51.08a5.17,5.17,0,0,1-3.32.1,8.51,8.51,0,0,0-2.2-.63,2.14,2.14,0,0,0-2.36,2.13c0,.51.63,1,1.12.64l.87-.62a.75.75,0,0,0,.15-1.16c-.83-.87-1.84-1.82-3.14-1.71a2.19,2.19,0,0,0-2.05,1.75l1.36-.18a3.87,3.87,0,0,0-4.58-1.46,1.8,1.8,0,0,0-1.29,1.38c-.08.65.28,1.26,1,1.21a.76.76,0,0,0,.72-.54c.58-2.22-1.66-3.51-3.6-3.25-.9.12-2.36.34-2.92,1.17a1.26,1.26,0,0,0,.47,1.87.76.76,0,0,0,.9-.12c2.23-2.47-2.9-3.5-4.41-3.46-1.1,0-2.58.46-3,1.6a1.12,1.12,0,0,0,1.6,1.43.75.75,0,0,0,.15-1.17A4.66,4.66,0,0,0,47,49.12a2,2,0,0,0-1.35,1.57,1,1,0,0,0,1.1,1.14,1.39,1.39,0,0,0,1.11-1.46,2,2,0,0,0-1.43-1.67c-1.65-.7-4-.74-4.29,1.49l1.27-.52a2.59,2.59,0,0,0-3.56-.31c-.63.55-1.57,2.32-.25,2.69.95.26,1.68-1,1.17-1.77-.84-1.27-3.08,0-4.07.32s-.52,1.74.39,1.43l1.44-.49.62-.22c.38,0,.53-.25.45-.7l.72.19-.13-.11.19.72a1.11,1.11,0,0,1,2-.7.75.75,0,0,0,1.26-.53c.1-.86,1.53-.37,2-.22a12.84,12.84,0,0,0,1.82.58,2.08,2.08,0,0,1,.63-.23,3.18,3.18,0,0,1,3,.79L51.18,50a.64.64,0,0,0,1,0l.46-.16a3.83,3.83,0,0,1,1.47,0c.17,0,2.82.59,2.55.89l.9-.12c.54.25,1.43-.25,2-.3.8-.06,2.18.24,1.88,1.4l.71-.55.6.38a1.44,1.44,0,0,1,.52-.2,2.39,2.39,0,0,1,1,0,2.31,2.31,0,0,1,1.52,1c.32.46,1.24.51,1.35-.18.27-1.65,2.2.08,2.71.62L70,51.42l-.87.62,1.11.64c0-.51.89-.66,1.24-.58s.49.16.72.24a8.77,8.77,0,0,0,1.64.48A6.65,6.65,0,0,0,77,52.51c.9-.31.51-1.74-.39-1.43Z" transform="translate(-10.11 -1.57)"/><path class="cls-2" d="M61.89,93.86l-1.48,9a1.52,1.52,0,0,0,1,1.82,1.5,1.5,0,0,0,1.82-1l1.48-9a1.48,1.48,0,0,0-2.86-.79Z" transform="translate(-10.11 -1.57)"/><path class="cls-2" d="M47.9,93A12.56,12.56,0,0,1,49,97.86c.13,1.92.17,3.83.49,5.73a1.5,1.5,0,0,0,1.83,1,1.52,1.52,0,0,0,1-1.82c-.29-1.74-.28-3.68-.42-5.51a15.59,15.59,0,0,0-1.45-5.81,1.5,1.5,0,0,0-2-.53,1.52,1.52,0,0,0-.53,2Z" transform="translate(-10.11 -1.57)"/><path class="cls-2" d="M64.85,94.41a1.11,1.11,0,0,1,0-.26l-.06.39a1.29,1.29,0,0,1,.08-.28l-.15.35c0-.08.09-.16.14-.24l-.23.3.07-.08a1.52,1.52,0,0,0,0-2.1l-.3-.23a1.49,1.49,0,0,0-.74-.2l-.4,0a1.47,1.47,0,0,0-.65.38c-.11.12-.21.26-.31.39l-.06.09-.06.12a3.57,3.57,0,0,0-.19.45,3.52,3.52,0,0,0-.11.62,1,1,0,0,0,0,.25A1.09,1.09,0,0,0,62,95a1.08,1.08,0,0,0,.31.48,1.53,1.53,0,0,0,1,.43l.4,0a1.47,1.47,0,0,0,.65-.38l.23-.3a1.41,1.41,0,0,0,.2-.75Z" transform="translate(-10.11 -1.57)"/><g class="cls-4"><path class="cls-2" d="M42.54,97.9C38.38,86.54,31.7,76.1,29,64.21a36.76,36.76,0,0,1,0-17.6,116.9,116.9,0,0,1,6-16.73,52.43,52.43,0,0,1,4.74-8.83A95,95,0,0,1,46.1,13c1.23-1.44-.86-3.55-2.09-2.09-4,4.75-7.85,9.54-10.54,15.2a131.53,131.53,0,0,0-6.6,17.27,40,40,0,0,0-1.43,18A69.75,69.75,0,0,0,31,78.91c2.88,6.61,6.24,13,8.73,19.78.65,1.78,3.51,1,2.85-.79Z" transform="translate(-10.11 -1.57)"/></g><path class="cls-5" d="M94.23,65.29" transform="translate(-10.11 -1.57)"/><path class="cls-5" d="M94.58,64.53" transform="translate(-10.11 -1.57)"/><path class="cls-5" d="M54.63,2.43a43.9,43.9,0,0,1,40.42,61" transform="translate(-10.11 -1.57)"/><path class="cls-5" d="M15.84,65.29" transform="translate(-10.11 -1.57)"/><path class="cls-5" d="M15.48,64.53" transform="translate(-10.11 -1.57)"/><path class="cls-5" d="M55.44,2.43a43.92,43.92,0,0,0-40.7,60.38" transform="translate(-10.11 -1.57)"/><path class="cls-2" d="M35.4,113.48c8.45.45,16.94,1.19,25.39,1.17a46.49,46.49,0,0,0,22.72-5.42c1.69-.93.18-3.52-1.51-2.59-6.89,3.79-14.38,5.08-22.18,5-8.13-.08-16.29-.74-24.42-1.17-1.93-.1-1.92,2.9,0,3Z" transform="translate(-10.11 -1.57)"/><path class="cls-2" d="M28.05,120.07,55,121.42c7.84.4,16.11,1.09,23.32-2.65,1.72-.89.2-3.48-1.51-2.59-7,3.6-15.27,2.57-22.79,2.19l-25.95-1.3c-1.93-.09-1.92,2.91,0,3Z" transform="translate(-10.11 -1.57)"/><path class="cls-2" d="M87,121.59c-7.68,3-16.19,3.3-24.35,3.52a143,143,0,0,1-25.91-1.49c-1.89-.3-2.7,2.59-.79,2.89a146.29,146.29,0,0,0,26.7,1.6c8.4-.22,17.24-.5,25.15-3.63,1.77-.7,1-3.6-.8-2.89Z" transform="translate(-10.11 -1.57)"/><path class="cls-2" d="M36,134.64l18.79.5c3,.08,5.92.2,8.88.22a14.67,14.67,0,0,0,7.79-1.7A1.5,1.5,0,0,0,70,131.07c-2.22,1.33-4.81,1.33-7.33,1.27-2.94-.06-5.88-.15-8.82-.23L36,131.64c-1.93,0-1.93,3,0,3Z" transform="translate(-10.11 -1.57)"/><path class="cls-2" d="M57.49,141.9a1.5,1.5,0,0,0,0-3,1.5,1.5,0,0,0,0,3Z" transform="translate(-10.11 -1.57)"/><g class="cls-6"><path class="cls-7" d="M55.14,92.93a33.78,33.78,0,0,0,17.33-3.87A33.82,33.82,0,0,0,87,79.75a33.7,33.7,0,0,0,9.3-14.48,33.9,33.9,0,0,0,3.88-17.34L98.53,36A45.1,45.1,0,0,0,87,16.11l-9.11-7A44.85,44.85,0,0,0,55.14,2.93,33.9,33.9,0,0,0,37.8,6.81a33.7,33.7,0,0,0-14.48,9.3A33.82,33.82,0,0,0,14,30.6a33.88,33.88,0,0,0-3.87,17.33l1.6,12A44.93,44.93,0,0,0,23.32,79.75l9.1,7a44.75,44.75,0,0,0,22.72,6.14Z" transform="translate(-10.11 -1.57)"/></g></svg>