<svg id="Layer_1" data-name="Layer 1" xmlns="http://www.w3.org/2000/svg" viewBox="0 0 81.25 49.72"><defs><style>.cls-1{fill:#f7f7f7;}</style></defs><title>steps</title><ellipse class="cls-1" cx="8.41" cy="8.2" rx="0.17" ry="0.56" transform="translate(-5.05 3.92) rotate(-26.63)"/><ellipse class="cls-1" cx="8.91" cy="7.95" rx="0.22" ry="0.56" transform="translate(-3.31 0.64) rotate(-8.22)"/><ellipse class="cls-1" cx="2.68" cy="6.49" rx="0.17" ry="0.56" transform="translate(-6.07 3.1) rotate(-45.17)"/><ellipse class="cls-1" cx="3.01" cy="6.13" rx="0.13" ry="0.58" transform="translate(-4.7 1.3) rotate(-26.76)"/><ellipse class="cls-1" cx="7.44" cy="13.28" rx="0.13" ry="0.55" transform="translate(-9.96 10.93) rotate(-54.6)"/><ellipse class="cls-1" cx="7.74" cy="12.86" rx="0.22" ry="0.56" transform="translate(-8.36 6.33) rotate(-36.19)"/><ellipse class="cls-1" cx="12.73" cy="14.27" rx="0.2" ry="0.46" transform="translate(-7.78 7.83) rotate(-30.86)"/><ellipse class="cls-1" cx="13.1" cy="13.9" rx="0.17" ry="0.5" transform="translate(-5.53 3.35) rotate(-15.7)"/><ellipse class="cls-1" cx="18.37" cy="19.61" rx="0.13" ry="0.55" transform="translate(-10.68 16.75) rotate(-42.29)"/><ellipse class="cls-1" cx="18.73" cy="19.27" rx="0.22" ry="0.56" transform="translate(-8.46 8.52) rotate(-23.88)"/><ellipse class="cls-1" cx="12.43" cy="19.06" rx="0.13" ry="0.55" transform="translate(-12.54 16.78) rotate(-52.95)"/><ellipse class="cls-1" cx="12.8" cy="18.67" rx="0.13" ry="0.63" transform="translate(-10.59 9.83) rotate(-34.54)"/><ellipse class="cls-1" cx="17.94" cy="23.27" rx="0.23" ry="0.5" transform="translate(-13.69 23.38) rotate(-53.99)"/><ellipse class="cls-1" cx="18.26" cy="22.79" rx="0.2" ry="0.51" transform="translate(-12.12 14.2) rotate(-35.65)"/><ellipse class="cls-1" cx="2.97" cy="1.37" rx="0.12" ry="0.55" transform="translate(-1.86 2.67) rotate(-63)"/><ellipse class="cls-1" cx="3.24" cy="1.09" rx="0.12" ry="0.51" transform="translate(-2.08 1.89) rotate(-44.87)"/><ellipse class="cls-1" cx="22.89" cy="22.06" rx="0.15" ry="0.51" transform="translate(-10.07 29.6) rotate(-58.99)"/><ellipse class="cls-1" cx="23.15" cy="21.63" rx="0.2" ry="0.51" transform="translate(-10.76 19.55) rotate(-40.58)"/><ellipse class="cls-1" cx="23.48" cy="25.56" rx="0.15" ry="0.51" transform="translate(-8.81 42.26) rotate(-77.54)"/><ellipse class="cls-1" cx="23.56" cy="25.13" rx="0.12" ry="0.53" transform="translate(-12.36 31.74) rotate(-59.12)"/><ellipse class="cls-1" cx="30.42" cy="28.45" rx="0.12" ry="0.5" transform="translate(-1.87 56.6) rotate(-86.96)"/><ellipse class="cls-1" cx="30.44" cy="27.98" rx="0.2" ry="0.51" transform="translate(-9 45.37) rotate(-68.55)"/><ellipse class="cls-1" cx="35.47" cy="25.63" rx="0.18" ry="0.42" transform="translate(-5.66 45.03) rotate(-63.22)"/><ellipse class="cls-1" cx="35.58" cy="25.18" rx="0.15" ry="0.45" transform="translate(-9.19 34.1) rotate(-48.06)"/><ellipse class="cls-1" cx="41.85" cy="27.99" rx="0.12" ry="0.5" transform="matrix(0.26, -0.96, 0.96, 0.26, 1.52, 60.22)"/><ellipse class="cls-1" cx="41.96" cy="27.56" rx="0.2" ry="0.51" transform="translate(-6.53 46.41) rotate(-56.24)"/><ellipse class="cls-1" cx="37.04" cy="30.46" rx="0.12" ry="0.5" transform="translate(1.4 64.17) rotate(-85.31)"/><ellipse class="cls-1" cx="37.13" cy="29.97" rx="0.12" ry="0.57" transform="translate(-7.27 51.66) rotate(-66.9)"/><ellipse class="cls-1" cx="43.3" cy="31" rx="0.21" ry="0.45" transform="translate(7.34 71.52) rotate(-86.35)"/><ellipse class="cls-1" cx="43.31" cy="30.48" rx="0.18" ry="0.47" transform="translate(-3.43 58.51) rotate(-68.01)"/><ellipse class="cls-1" cx="29.08" cy="23.73" rx="0.11" ry="0.51" transform="translate(-10.31 28.5) rotate(-47.61)"/><ellipse class="cls-1" cx="28.61" cy="24.24" rx="0.11" ry="0.49" transform="translate(-4.75 44.48) rotate(-74.24)"/><ellipse class="cls-1" cx="46.03" cy="29.42" rx="0.14" ry="0.48" transform="translate(-6.98 48.94) rotate(-54.33)"/><ellipse class="cls-1" cx="46.3" cy="29.03" rx="0.18" ry="0.48" transform="matrix(0.81, -0.59, 0.59, 0.81, -10.49, 31.97)"/><ellipse class="cls-1" cx="47.25" cy="33.27" rx="0.11" ry="0.47" transform="translate(5.68 74.92) rotate(-82.3)"/><ellipse class="cls-1" cx="47.31" cy="32.83" rx="0.18" ry="0.48" transform="translate(-5.26 60.14) rotate(-63.89)"/><ellipse class="cls-1" cx="51.76" cy="32.73" rx="0.17" ry="0.4" transform="translate(-5.42 59.1) rotate(-58.56)"/><ellipse class="cls-1" cx="51.9" cy="32.31" rx="0.14" ry="0.43" transform="translate(-10.27 43.77) rotate(-43.4)"/><ellipse class="cls-1" cx="50.99" cy="36.2" rx="0.11" ry="0.47" transform="translate(4.72 79.91) rotate(-80.65)"/><ellipse class="cls-1" cx="51.11" cy="35.75" rx="0.11" ry="0.54" transform="translate(-6.6 63.61) rotate(-62.24)"/><ellipse class="cls-1" cx="56.84" cy="35.02" rx="0.13" ry="0.43" transform="translate(-6.1 62.16) rotate(-56.29)"/><ellipse class="cls-1" cx="57.09" cy="34.67" rx="0.17" ry="0.43" transform="translate(-11.56 41.3) rotate(-37.58)"/><ellipse class="cls-1" cx="57.64" cy="40.02" rx="0.1" ry="0.43" transform="matrix(0.1, -1, 1, 0.1, 9.84, 92.7)"/><ellipse class="cls-1" cx="57.69" cy="39.63" rx="0.17" ry="0.44" transform="translate(-4.23 75.51) rotate(-66.01)"/><ellipse class="cls-1" cx="62.12" cy="37.84" rx="0.15" ry="0.36" transform="translate(-3.54 72.76) rotate(-60.69)"/><ellipse class="cls-1" cx="62.24" cy="37.45" rx="0.13" ry="0.38" transform="translate(-10.45 54.52) rotate(-45.21)"/><ellipse class="cls-1" cx="67.46" cy="40.1" rx="0.1" ry="0.42" transform="translate(6.24 91.18) rotate(-72.03)"/><ellipse class="cls-1" cx="67.58" cy="39.73" rx="0.17" ry="0.43" transform="translate(-6.79 69.79) rotate(-53.56)"/><ellipse class="cls-1" cx="63.21" cy="42" rx="0.1" ry="0.42" transform="translate(11.23 98.62) rotate(-82.67)"/><ellipse class="cls-1" cx="63.31" cy="41.59" rx="0.1" ry="0.49" transform="translate(-3.92 79.81) rotate(-64.24)"/><ellipse class="cls-1" cx="67.93" cy="43.14" rx="0.18" ry="0.39" transform="translate(15.57 105.39) rotate(-83.91)"/><ellipse class="cls-1" cx="67.97" cy="42.69" rx="0.15" ry="0.4" transform="translate(-1.34 86.1) rotate(-65.48)"/><ellipse class="cls-1" cx="70.95" cy="41.47" rx="0.13" ry="0.55" transform="translate(-11.7 57.82) rotate(-42.29)"/><ellipse class="cls-1" cx="71.31" cy="41.13" rx="0.22" ry="0.56" transform="translate(-12.81 31.67) rotate(-23.88)"/><ellipse class="cls-1" cx="70.45" cy="45.22" rx="0.18" ry="0.4" transform="translate(-7.21 80.88) rotate(-58.45)"/><ellipse class="cls-1" cx="70.72" cy="44.86" rx="0.16" ry="0.4" transform="translate(-14.58 54.98) rotate(-39.82)"/><ellipse class="cls-1" cx="75.48" cy="43.92" rx="0.15" ry="0.51" transform="translate(-3.32 85.27) rotate(-58.99)"/><ellipse class="cls-1" cx="75.74" cy="43.49" rx="0.2" ry="0.51" transform="translate(-12.34 59.01) rotate(-40.58)"/><ellipse class="cls-1" cx="76.07" cy="47.42" rx="0.15" ry="0.51" transform="translate(11.08 110.75) rotate(-77.54)"/><ellipse class="cls-1" cx="76.15" cy="46.99" rx="0.12" ry="0.53" transform="translate(-5.52 87.52) rotate(-59.12)"/><ellipse class="cls-1" cx="83" cy="50.31" rx="0.12" ry="0.5" transform="translate(26.1 129.82) rotate(-86.96)"/><ellipse class="cls-1" cx="83.03" cy="49.85" rx="0.2" ry="0.51" transform="translate(4.01 108.18) rotate(-68.55)"/><ellipse class="cls-1" cx="81.67" cy="45.6" rx="0.11" ry="0.51" transform="translate(-9.33 74.46) rotate(-47.61)"/><ellipse class="cls-1" cx="81.2" cy="46.1" rx="0.11" ry="0.49" transform="translate(12.51 111.01) rotate(-74.24)"/></svg>